<svg width="59" height="29" fill="none" xmlns="http://www.w3.org/2000/svg"><path d="M34.625.125H25.25a3.134 3.134 0 0 0-3.125 3.125v12.5a3.134 3.134 0 0 0 3.125 3.125h9.375a3.134 3.134 0 0 0 3.125-3.125V3.25A3.134 3.134 0 0 0 34.625.125zm-1.563 14.063h-6.25V4.812h6.25v9.375zm-17.187-1.563v3.125a3.134 3.134 0 0 1-3.125 3.125H3.375A3.134 3.134 0 0 1 .25 15.75V3.25A3.134 3.134 0 0 1 3.375.125h9.375a3.134 3.134 0 0 1 3.125 3.125v3.125h-4.688V4.812h-6.25v9.375h6.25v-1.562h4.688zm39.063 7.813h-6.25v3.125h9.374v4.687H44v-7.813a3.134 3.134 0 0 1 3.125-3.125h6.25v-3.125H44V9.5h10.938a3.134 3.134 0 0 1 3.124 3.125v4.688a3.134 3.134 0 0 1-3.124 3.125z" fill="#27834C"/></svg>