<svg width="51" height="51" fill="none" xmlns="http://www.w3.org/2000/svg"><g clip-path="url(#a)"><path d="M20.508 10.675C21.875 10.48 23 11.62 23 13v15h15c1.38 0 2.52 1.125 2.325 2.492A17.505 17.505 0 0 1 5.5 28a17.505 17.505 0 0 1 15.008-17.325zM43.154 25.5c1.245 0 2.317-.915 2.343-2.16L45.5 23A17.5 17.5 0 0 0 27.66 5.502c-1.245.025-2.16 1.1-2.16 2.343V23a2.5 2.5 0 0 0 2.5 2.5h15.155z" fill="#24884D"/></g><defs><clipPath id="a"><path fill="#fff" transform="translate(.5 .5)" d="M0 0h50v50H0z"/></clipPath></defs></svg>