<svg xmlns="http://www.w3.org/2000/svg" width="200" height="200" style="shape-rendering:geometricPrecision;text-rendering:geometricPrecision;image-rendering:optimizeQuality;fill-rule:evenodd;clip-rule:evenodd"><path style="opacity:1" fill="#57c08b" d="M-.5-.5h200v200H-.5V-.5z"/><path style="opacity:1" fill="#fcfefd" d="M111.5 86.5c-8.276 18.795-19.942 35.295-35 49.5-1 .667-2 .667-3 0-4.693-5.656-6.193-12.156-4.5-19.5a79.01 79.01 0 0 1 8-19 1254.306 1254.306 0 0 0 30-37c4.181-7.036 8.348-14.036 12.5-21 12.669 28.052 14.169 56.719 4.5 86-8.231 14.433-20.731 20.267-37.5 17.5a113.354 113.354 0 0 1-28 21c-3.685.18-5.185-1.653-4.5-5.5 28.269-16.765 47.435-40.765 57.5-72z"/><path style="opacity:1" fill="#365286" d="M45.5 58.5a63.67 63.67 0 0 1 7 6.5 1657.326 1657.326 0 0 0-34 34.5 1609.76 1609.76 0 0 0 33.5 34c-.791 3.143-2.791 5.476-6 7A1185.99 1185.99 0 0 1 4.5 100a2400.532 2400.532 0 0 0 41-41.5zM152.5 58.5a2458.015 2458.015 0 0 1 42 41.5 1185.815 1185.815 0 0 1-41.5 40.5c-3.209-1.524-5.209-3.857-6-7a1609.274 1609.274 0 0 0 33.5-34 1656.826 1656.826 0 0 0-34-34.5 54.538 54.538 0 0 0 6-6.5z"/><path style="opacity:1" fill="#a6ddc0" d="M111.5 86.5a187.266 187.266 0 0 1 3.5-13c.226 4.765-.94 9.098-3.5 13z"/></svg>