<svg width="518" height="503" fill="none" xmlns="http://www.w3.org/2000/svg"><g clip-path="url(#a)" stroke="#AAED75" stroke-width="3"><path d="M273.397 159.431c-.543 9.005-2.977 16.966-6.399 22.554-3.461 5.65-7.69 8.534-11.768 8.288-4.078-.246-7.929-3.617-10.686-9.642-2.725-5.959-4.185-14.154-3.642-23.16.266-4.409 1.698-10.337 3.753-16.832 2.046-6.468 4.676-13.397 7.28-19.771a454.857 454.857 0 0 1 8.677-19.825 456.411 456.411 0 0 1 6.232 20.725c1.818 6.64 3.597 13.835 4.851 20.502 1.259 6.695 1.968 12.752 1.702 17.161zM190.711 13.82v-.001c3.033-2.597 8.223-2.85 14.608-.443 6.299 2.376 13.338 7.209 19.553 13.983 3.044 3.318 6.376 8.511 9.681 14.526 3.292 5.991 6.51 12.709 9.341 19.013a458.42 458.42 0 0 1 8.349 19.887 489.058 489.058 0 0 1-19.518-10.44c-6.141-3.473-12.66-7.368-18.424-11.247-5.787-3.894-10.727-7.716-13.774-11.037-6.214-6.773-10.326-14.094-12.005-20.399-1.699-6.384-.817-11.27 2.189-13.843zm149.783 9.033c2.675 2.916 2.964 7.873.509 14.006-2.424 6.057-7.386 12.831-14.369 18.808-3.424 2.93-8.788 6.131-15.001 9.302-6.189 3.158-13.128 6.241-19.642 8.951a489.256 489.256 0 0 1-20.632 8.018 459.626 459.626 0 0 1 10.679-18.739c3.568-5.919 7.57-12.2 11.559-17.753 4.004-5.574 7.935-10.328 11.357-13.257 6.983-5.978 14.552-9.93 21.091-11.53 6.629-1.623 11.751-.749 14.449 2.194zM211.891 210.314c-3.035 2.597-8.226 2.849-14.612.441-6.299-2.376-13.337-7.209-19.549-13.981-3.046-3.319-6.378-8.513-9.683-14.527-3.293-5.992-6.51-12.709-9.341-19.014a458.394 458.394 0 0 1-8.348-19.884 488.542 488.542 0 0 1 19.52 10.441c6.141 3.473 12.66 7.368 18.425 11.247 5.786 3.894 10.726 7.715 13.771 11.035 6.216 6.776 10.329 14.098 12.007 20.402 1.699 6.384.815 11.269-2.19 13.84zm-82.326-75.668a491.985 491.985 0 0 1-21.261 5.888c-6.866 1.73-14.308 3.42-21.206 4.605-6.924 1.19-13.204 1.853-17.787 1.576-9.343-.563-17.613-2.954-23.426-6.294-5.902-3.392-8.852-7.484-8.62-11.342.233-3.858 3.654-7.566 9.92-10.224 6.173-2.617 14.67-3.996 24.013-3.433 4.583.276 10.738 1.689 17.469 3.702 6.706 2.006 13.89 4.578 20.499 7.121a493.333 493.333 0 0 1 20.399 8.401zm1.585-70.589c.544-9.005 2.977-16.966 6.4-22.554 3.46-5.65 7.689-8.534 11.767-8.288 4.078.246 7.929 3.617 10.686 9.642 2.726 5.959 4.185 14.154 3.642 23.16-.266 4.409-1.698 10.337-3.753 16.832-2.046 6.468-4.676 13.397-7.279 19.771a454.65 454.65 0 0 1-8.678 19.825 454.3 454.3 0 0 1-6.232-20.725c-1.818-6.64-3.596-13.835-4.85-20.502-1.259-6.695-1.969-12.752-1.703-17.161zm32.81 172.542c9.342.563 17.613 2.954 23.426 6.294 5.902 3.392 8.852 7.484 8.619 11.342-.232 3.858-3.653 7.566-9.92 10.224-6.172 2.617-14.67 3.996-24.012 3.433-4.583-.277-10.738-1.69-17.469-3.702-6.706-2.006-13.891-4.578-20.499-7.121a493.333 493.333 0 0 1-20.399-8.401 491.408 491.408 0 0 1 21.261-5.888c6.866-1.731 14.307-3.42 21.206-4.605 6.924-1.19 13.204-1.853 17.787-1.576zm-84.876 21.417c1.37-.51 2.585-.955 3.61-1.327a459.085 459.085 0 0 1-10.677 18.737c-3.568 5.918-7.57 12.2-11.559 17.753-4.004 5.573-7.936 10.329-11.358 13.258-6.982 5.976-14.55 9.927-21.088 11.528-6.629 1.623-11.753.749-14.453-2.192-2.675-2.914-2.965-7.869-.51-14.003 2.423-6.057 7.385-12.832 14.37-18.811 3.423-2.929 8.786-6.13 14.999-9.3 6.189-3.158 13.129-6.241 19.642-8.951a489.133 489.133 0 0 1 17.023-6.692zm-56.806-86.809c3.035-2.597 8.226-2.849 14.611-.441 6.3 2.376 13.338 7.209 19.55 13.981 3.046 3.319 6.378 8.513 9.683 14.527 3.293 5.992 6.51 12.709 9.34 19.014a458.186 458.186 0 0 1 8.349 19.884 489.131 489.131 0 0 1-19.52-10.441c-6.141-3.473-12.66-7.368-18.425-11.247-5.786-3.894-10.726-7.715-13.772-11.035-6.215-6.775-10.328-14.098-12.006-20.402-1.699-6.384-.816-11.269 2.19-13.84zM216.941 296.27c2.675 2.916 2.964 7.873.509 14.006-2.423 6.057-7.386 12.831-14.369 18.808-3.424 2.931-8.787 6.131-15 9.302-6.189 3.158-13.129 6.241-19.643 8.951a488.441 488.441 0 0 1-20.631 8.018 459.569 459.569 0 0 1 10.678-18.739c3.569-5.919 7.571-12.201 11.559-17.753 4.004-5.574 7.936-10.328 11.357-13.257 6.984-5.978 14.552-9.93 21.091-11.531 6.629-1.622 11.751-.748 14.449 2.195zm-79.612 82.514c.6-1.315 1.135-2.474 1.588-3.445a454.964 454.964 0 0 1 6.232 20.724c1.818 6.641 3.597 13.836 4.851 20.503 1.259 6.695 1.968 12.752 1.702 17.161-.543 9.005-2.977 16.966-6.399 22.554-3.461 5.65-7.69 8.534-11.768 8.288-4.077-.246-7.929-3.617-10.685-9.643-2.726-5.958-4.186-14.154-3.642-23.159.265-4.409 1.698-10.337 3.752-16.832 2.046-6.468 4.676-13.397 7.28-19.771a454.857 454.857 0 0 1 7.089-16.38zm-71.466-5.214c-9.342-.564-17.612-2.955-23.425-6.295-5.903-3.391-8.853-7.484-8.62-11.342.233-3.858 3.653-7.566 9.92-10.223 6.173-2.618 14.67-3.997 24.013-3.433 4.583.276 10.737 1.689 17.468 3.702 6.707 2.005 13.891 4.577 20.499 7.12a491.678 491.678 0 0 1 20.399 8.401 493.133 493.133 0 0 1-21.26 5.889c-6.867 1.73-14.308 3.42-21.207 4.605-6.924 1.189-13.204 1.852-17.787 1.576zm178.349-30.946c.543-9.005 2.977-16.966 6.399-22.553 3.461-5.65 7.689-8.535 11.767-8.289 4.078.246 7.93 3.618 10.686 9.643 2.726 5.958 4.185 14.154 3.642 23.159-.266 4.409-1.698 10.338-3.752 16.832-2.047 6.468-4.677 13.397-7.28 19.771a453.78 453.78 0 0 1-8.678 19.826 453.207 453.207 0 0 1-6.231-20.725c-1.819-6.641-3.597-13.836-4.851-20.503-1.259-6.694-1.968-12.752-1.702-17.161zm21.153 78.645a488.276 488.276 0 0 1 19.519 10.44c6.14 3.473 12.659 7.368 18.424 11.247 5.787 3.894 10.726 7.716 13.773 11.037 6.214 6.773 10.326 14.094 12.003 20.398 1.699 6.385.817 11.271-2.187 13.844-3.032 2.597-8.222 2.85-14.608.443-6.299-2.375-13.338-7.209-19.552-13.983-3.045-3.318-6.376-8.511-9.681-14.526-3.293-5.991-6.511-12.709-9.342-19.013a458.292 458.292 0 0 1-8.349-19.887zm-88.246 57.933c-2.675-2.916-2.964-7.873-.509-14.006 2.424-6.057 7.386-12.831 14.369-18.808 3.424-2.931 8.787-6.131 15-9.302 6.189-3.158 13.129-6.241 19.643-8.951a489.229 489.229 0 0 1 20.632-8.018 459.569 459.569 0 0 1-10.679 18.739c-3.568 5.919-7.571 12.201-11.559 17.753-4.004 5.574-7.936 10.328-11.357 13.257-6.984 5.978-14.552 9.93-21.091 11.531-6.629 1.622-11.751.748-14.449-2.195zm128.599-187.465v-.001c3.035-2.597 8.226-2.849 14.611-.441 6.3 2.376 13.337 7.209 19.55 13.981 3.046 3.32 6.378 8.513 9.683 14.528 3.292 5.991 6.51 12.709 9.341 19.013a460.18 460.18 0 0 1 8.348 19.885 489.217 489.217 0 0 1-19.521-10.441c-6.14-3.474-12.66-7.368-18.424-11.248-5.787-3.894-10.726-7.715-13.772-11.035-6.216-6.775-10.328-14.097-12.006-20.402-1.699-6.384-.816-11.268 2.19-13.839zm82.331 75.668a502.491 502.491 0 0 1 21.26-5.888c6.866-1.73 14.308-3.42 21.206-4.605 6.925-1.189 13.205-1.852 17.787-1.576 9.343.563 17.613 2.954 23.426 6.295 5.902 3.391 8.853 7.483 8.62 11.341-.233 3.858-3.653 7.566-9.921 10.224-6.172 2.617-14.67 3.997-24.012 3.433-4.583-.276-10.738-1.689-17.469-3.702-6.706-2.006-13.89-4.578-20.499-7.121a493.57 493.57 0 0 1-20.398-8.401zm-1.587 70.594c-.543 9.005-2.976 16.966-6.399 22.553-3.46 5.65-7.689 8.534-11.767 8.289-4.078-.246-7.929-3.618-10.686-9.643-2.726-5.958-4.185-14.154-3.642-23.159.266-4.409 1.698-10.338 3.753-16.832 2.046-6.468 4.676-13.397 7.279-19.771a455.58 455.58 0 0 1 8.678-19.826 453.207 453.207 0 0 1 6.231 20.725c1.819 6.641 3.597 13.835 4.851 20.503 1.259 6.694 1.968 12.752 1.702 17.161zm-32.809-172.543c-9.343-.563-17.613-2.954-23.426-6.294-5.902-3.392-8.852-7.484-8.62-11.342.233-3.858 3.654-7.566 9.921-10.223 6.172-2.618 14.67-3.997 24.012-3.434 4.583.277 10.738 1.69 17.469 3.703 6.706 2.005 13.891 4.577 20.499 7.12a493.333 493.333 0 0 1 20.399 8.401 491.985 491.985 0 0 1-21.261 5.888c-6.866 1.731-14.307 3.42-21.206 4.605-6.924 1.19-13.204 1.853-17.787 1.576zm150.401-79.178.001.001c2.674 2.913 2.964 7.869.51 14.002-2.423 6.057-7.386 12.832-14.371 18.811-3.423 2.93-8.786 6.13-14.999 9.3-6.188 3.158-13.128 6.241-19.642 8.951a489.728 489.728 0 0 1-20.634 8.02 459.486 459.486 0 0 1 10.677-18.737c3.568-5.919 7.57-12.201 11.559-17.753 4.004-5.574 7.936-10.329 11.359-13.259 6.981-5.976 14.549-9.928 21.088-11.529 6.628-1.624 11.752-.75 14.452 2.193zm-8.719 144.57c-3.035 2.598-8.226 2.849-14.612.441-6.299-2.375-13.337-7.209-19.549-13.981-3.046-3.319-6.378-8.512-9.683-14.527-3.293-5.992-6.51-12.709-9.341-19.014a458.394 458.394 0 0 1-8.348-19.884 489.566 489.566 0 0 1 19.52 10.441c6.141 3.473 12.66 7.368 18.425 11.247 5.786 3.894 10.726 7.716 13.771 11.035 6.216 6.776 10.329 14.098 12.007 20.402 1.698 6.384.815 11.269-2.19 13.84zM300.668 205.78h-.001c-2.675-2.916-2.963-7.873-.509-14.006 2.424-6.057 7.387-12.831 14.37-18.808 3.424-2.931 8.787-6.131 15-9.302 6.189-3.158 13.129-6.241 19.642-8.951a489.229 489.229 0 0 1 20.632-8.018 458.088 458.088 0 0 1-10.679 18.739c-3.568 5.919-7.57 12.201-11.558 17.753-4.004 5.574-7.936 10.329-11.357 13.257-6.984 5.978-14.553 9.93-21.092 11.531-6.628 1.623-11.75.748-14.448-2.195zm78.023-79.064a454.86 454.86 0 0 1-6.232-20.725c-1.818-6.64-3.596-13.835-4.85-20.503-1.259-6.694-1.969-12.752-1.703-17.16.544-9.006 2.977-16.967 6.4-22.554 3.46-5.65 7.689-8.535 11.767-8.288 4.078.245 7.929 3.617 10.686 9.642 2.726 5.958 4.185 14.154 3.642 23.16-.266 4.408-1.698 10.337-3.753 16.831-2.046 6.468-4.676 13.397-7.279 19.771a455.58 455.58 0 0 1-8.678 19.826zm73.058 1.769c9.343.564 17.613 2.955 23.426 6.295 5.902 3.392 8.852 7.484 8.62 11.342-.233 3.858-3.653 7.566-9.921 10.223-6.172 2.618-14.67 3.997-24.012 3.434-4.583-.277-10.738-1.69-17.469-3.703-6.706-2.005-13.89-4.577-20.499-7.12a493.333 493.333 0 0 1-20.399-8.401 493.133 493.133 0 0 1 21.261-5.889c6.866-1.73 14.308-3.42 21.206-4.605 6.924-1.189 13.204-1.852 17.787-1.576z"/></g><defs><clipPath id="a"><path fill="#fff" transform="rotate(3.452 14.25 472.984)" d="M0 0h490v473.413H0z"/></clipPath></defs></svg>