<svg xmlns="http://www.w3.org/2000/svg" width="76" height="20"><path style="stroke:none;fill-rule:nonzero;fill:#a100ff;fill-opacity:1" d="m43.703 5.586 4.32-1.625-4.32-1.672V.012l7.399 3.02V4.89l-7.399 3.02zm0 0"/><path style="stroke:none;fill-rule:nonzero;fill:#fff;fill-opacity:1" d="M2.848 19.988C1.285 19.988 0 19.2 0 17.434v-.094c0-2.137 1.84-2.88 4.09-2.88h1.058v-.417c0-.883-.367-1.395-1.289-1.395-.828 0-1.238.465-1.285 1.114H.277c.184-1.95 1.7-2.88 3.723-2.88 2.066 0 3.582.884 3.582 3.067v5.852H5.238v-1.02c-.457.649-1.238 1.207-2.39 1.207zm2.3-3.066v-.836h-.964c-1.196 0-1.793.324-1.793 1.113v.094c0 .605.367 1.023 1.195 1.023.824-.046 1.562-.511 1.562-1.394zm7.903 3.066c-2.39 0-4.137-1.488-4.137-4.46v-.137c0-2.977 1.84-4.555 4.137-4.555 1.976 0 3.586 1.023 3.77 3.297h-2.298c-.14-.836-.597-1.39-1.425-1.39-1.012 0-1.746.835-1.746 2.554v.277c0 1.766.644 2.555 1.746 2.555.828 0 1.425-.602 1.562-1.578h2.207c-.14 2.043-1.472 3.437-3.816 3.437zm9.008 0c-2.391 0-4.137-1.488-4.137-4.46v-.137c0-2.977 1.84-4.555 4.137-4.555 1.976 0 3.586 1.023 3.77 3.297H23.53c-.14-.836-.597-1.39-1.426-1.39-1.011 0-1.746.835-1.746 2.554v.277c0 1.766.641 2.555 1.746 2.555.829 0 1.426-.602 1.563-1.578h2.207c-.14 2.043-1.473 3.437-3.816 3.437zm9.054 0c-2.484 0-4.183-1.488-4.183-4.414v-.183c0-2.93 1.793-4.555 4.136-4.555 2.16 0 3.954 1.207 3.954 4.133v1.07h-5.653c.09 1.578.781 2.184 1.79 2.184.921 0 1.425-.512 1.609-1.114h2.254c-.278 1.625-1.657 2.88-3.907 2.88zm-1.703-5.574h3.219c-.047-1.3-.645-1.86-1.61-1.86-.734.048-1.425.466-1.609 1.86zm7.078-3.344h2.438v1.301c.414-.84 1.285-1.488 2.617-1.488 1.562 0 2.621.976 2.621 3.066v5.852h-2.437v-5.48c0-1.024-.414-1.489-1.286-1.489-.828 0-1.515.512-1.515 1.629v5.34h-2.438zm12.133-2.648v2.648h1.656v1.809h-1.656v4.137c0 .648.277.972.875.972.367 0 .598-.043.824-.136v1.902c-.273.094-.78.187-1.379.187-1.882 0-2.754-.882-2.754-2.648v-4.414h-1.011V11.07h1.011V9.441zM59.375 19.8h-2.39v-1.3c-.415.836-1.239 1.488-2.528 1.488-1.562 0-2.71-.976-2.71-3.02V11.07h2.437v5.575c0 1.02.41 1.484 1.238 1.484.828 0 1.516-.559 1.516-1.625V11.07h2.437zm1.793-8.73h2.434v1.624c.507-1.164 1.336-1.718 2.62-1.718v2.414c-1.656 0-2.62.511-2.62 1.953v4.504h-2.434zm9.973 8.917c-2.485 0-4.184-1.488-4.184-4.414v-.183c0-2.93 1.793-4.555 4.137-4.555 2.16 0 3.953 1.207 3.953 4.133v1.07h-5.61c.094 1.578.782 2.184 1.793 2.184.922 0 1.426-.512 1.61-1.114h2.254c-.371 1.625-1.703 2.88-3.953 2.88zm-1.746-5.574h3.261c-.047-1.3-.644-1.86-1.61-1.86-.734.048-1.421.466-1.651 1.86zm0 0"/></svg>