<svg xmlns="http://www.w3.org/2000/svg" width="95" height="71" style="shape-rendering:geometricPrecision;text-rendering:geometricPrecision;image-rendering:optimizeQuality;fill-rule:evenodd;clip-rule:evenodd"><path style="opacity:.999" fill="#5fa477" d="M35.5 6.5c2.179.34 4.012 1.34 5.5 3 4.896 8.409 3.229 9.409-5 3-1.612-1.956-1.778-3.956-.5-6z"/><path style="opacity:.975" fill="#5ca274" d="M52.5 6.5c1.877 1.16 2.377 2.826 1.5 5a49.328 49.328 0 0 1-8 5c.316-4.492 2.483-7.826 6.5-10z"/><path style="opacity:.977" fill="#559f6f" d="m60.5 18.5-2 1c-2.373-3.609-2.373-7.109 0-10.5.95-.617 1.782-.45 2.5.5.736 3.092.57 6.092-.5 9z"/><path style="opacity:.988" fill="#60a477" d="M30.5 9.5c3.53 3.772 3.53 7.772 0 12-3.751-4.198-3.751-8.197 0-12z"/><path style="opacity:.082" fill="#c2dccc" d="M60.5 18.5c-.532 2.96-1.199 3.293-2 1l2-1z"/><path style="opacity:.98" fill="#58a071" d="M43.5 17.5c2.152 1.869 3.486 4.369 4 7.5-1.692 5.693-3.692 5.86-6 .5a35.17 35.17 0 0 0 2-8z"/><path style="opacity:.997" fill="#549e6e" d="M65.5 19.5a18.436 18.436 0 0 1 6 .5c1.666 3.131.666 4.631-3 4.5a22.408 22.408 0 0 1-8-2.5 39.419 39.419 0 0 1 5-2.5z"/><path style="opacity:.855" fill="#549e6e" d="M19.5 20.5a27.624 27.624 0 0 1 10 2.5c-4.506 3.052-8.839 3.052-13 0a81.718 81.718 0 0 0 3-2.5z"/><path style="opacity:.995" fill="#4a9967" d="M53.5 30.5h-3v-3c2.042-3.023 4.709-4.356 8-4-.953 2.93-2.62 5.263-5 7z"/><path style="opacity:.993" fill="#58a171" d="M30.5 24.5c.06-.543.393-.876 1-1 5.13 1.032 8.13 4.032 9 9a10.1 10.1 0 0 1-6-1.5 59.753 59.753 0 0 0-4-6.5z"/><path style="opacity:1" fill="#5ba273" d="M73.5 25.5c1.15.291 1.816 1.124 2 2.5l-.5 2.5a49.328 49.328 0 0 1-8 5c.391-4.441 2.558-7.774 6.5-10z"/><path style="opacity:.995" fill="#5ca274" d="M15.5 27.5c1.808-.009 3.475.491 5 1.5 6.064 8.212 4.731 9.546-4 4-1.799-1.7-2.132-3.533-1-5.5z"/><path style="opacity:.639" fill="#a0c9b0" d="M50.5 27.5v3h3c-1.068.934-2.401 1.268-4 1-.268-1.599.066-2.932 1-4z"/><path style="opacity:1" fill="#5aa173" d="M53.5 33.5c4.328-.463 8.328.37 12 2.5-2.81.911-5.644 1.744-8.5 2.5-3.569-.357-4.735-2.023-3.5-5z"/><path style="opacity:.989" fill="#539e6d" d="m28.5 38.5-1-2c3.543-2.436 7.043-2.436 10.5 0 .617.95.45 1.782-.5 2.5-3.092.736-6.092.57-9-.5z"/><path style="opacity:.612" fill="#9cc8ad" d="m27.5 36.5 1 2c-2.96-.532-3.293-1.199-1-2z"/><path style="opacity:1" fill="#56a070" d="M66.5 36.5c5.54.58 8.54 3.58 9 9-1.808.009-3.475-.491-5-1.5a82.211 82.211 0 0 1-4-7.5z"/><path style="opacity:.999" fill="#4e9b6a" d="M18.5 46.5c-1.679.215-2.679-.452-3-2 .01-1.517.677-2.684 2-3.5a60.727 60.727 0 0 0 6.5-3.5c-.277 3.876-2.11 6.876-5.5 9z"/><path style="opacity:1" fill="#559f6f" d="M50.5 40.5c1.7-.16 3.366.007 5 .5 7.443 8.642 6.443 10.309-3 5-1.361-1.584-2.028-3.418-2-5.5z"/><path style="opacity:1" fill="#5fa477" d="M37.5 41.5h4c-.71 5.862-4.043 8.695-10 8.5 1.442-3.268 3.442-6.101 6-8.5z"/><path style="opacity:1" fill="#569f70" d="m47.5 53.5-2 1a53.864 53.864 0 0 1-2-7c.247-3.279 1.747-4.279 4.5-3 .736 3.092.57 6.092-.5 9z"/><path style="opacity:.039" fill="#ebf1ed" d="M15.5 44.5c.321 1.548 1.321 2.215 3 2-1.068.934-2.401 1.268-4 1-.237-1.291.096-2.291 1-3z"/><path style="opacity:1" fill="#5aa172" d="M65.5 47.5c3.483-.584 6.483.25 9 2.5-3.295 2.842-6.962 3.175-11 1l-2-1a51.209 51.209 0 0 1 4-2.5z"/><path style="opacity:1" fill="#60a477" d="M25.5 52.5h-7c-1.276-.886-1.276-1.886 0-3 4.268-1.51 8.268-1.01 12 1.5-1.405 1.27-3.071 1.77-5 1.5z"/><path style="opacity:.533" fill="#b9d7c5" d="M18.5 52.5h7c-2.264 2.39-4.598 2.39-7 0z"/><path style="opacity:.99" fill="#58a071" d="M59.5 50.5c3.192 3.435 4.192 7.435 3 12h-4a6.845 6.845 0 0 0-1-4 35.17 35.17 0 0 0 2-8z"/><path style="opacity:.998" fill="#58a071" d="M31.5 51.5c1.366 2.418 2.366 5.084 3 8-2.123 6.589-3.79 6.589-5 0 .064-2.85.73-5.517 2-8z"/><path style="opacity:.051" fill="#cfe3d7" d="M47.5 53.5c-.21 1.924-.877 2.257-2 1l2-1z"/><path style="opacity:1" fill="#569f70" d="M44.5 56.5c.949 2.529.282 4.862-2 7-1.673 1.586-3.673 2.253-6 2a8.434 8.434 0 0 1 .5-4c2.48-1.814 4.98-3.48 7.5-5z"/><path style="opacity:.999" fill="#5aa273" d="M46.5 57.5c.06-.543.393-.876 1-1l7 3.5c1.361 1.584 2.028 3.418 2 5.5-1.7.16-3.366-.007-5-.5-1.814-2.48-3.48-4.98-5-7.5z"/></svg>