<svg version="1.1" id="Calque_1" xmlns="http://www.w3.org/2000/svg" x="0" y="0" viewBox="0 0 2144.4 662.2" style="enable-background:new 0 0 2144.4 662.2" xml:space="preserve"><style>.st1{fill:#4e9bcd}</style><g id="SonarQube_Black"><path d="M197.3 431.9c9.9 6.1 30.5 13.2 46.5 13.2 16.4 0 23.1-5.7 23.1-14.5s-5.3-13.1-25.6-19.9c-35.9-12.1-49.7-31.6-49.3-52.2 0-32.3 27.7-56.8 70.6-56.8 20.2 0 38.3 4.6 49 9.9l-9.6 37.3c-7.8-4.3-22.7-9.9-37.6-9.9-13.1 0-20.6 5.3-20.6 14.2 0 8.2 6.8 12.4 28.1 19.9 33 11.4 46.9 28 47.2 53.6 0 32.3-25.5 56.1-75.3 56.1-22.7 0-42.9-5-56.1-12.1l9.6-38.8zM509 390.4c0 63.5-45.1 92.7-91.6 92.7-50.8 0-89.8-33.4-89.8-89.5s36.9-91.9 92.7-91.9c53.3-.1 88.7 36.5 88.7 88.7zm-125.6 1.7c0 29.8 12.4 52.2 35.5 52.2 21 0 34.4-21 34.4-52.2 0-25.9-9.9-52.2-34.4-52.2-25.9 0-35.5 26.7-35.5 52.2zm144.9-31.2c0-21.6-.7-40.1-1.4-55.4h46.9l2.5 23.8h1.1c7.1-11 24.8-27.7 53.6-27.7 35.5 0 62.2 23.4 62.2 74.5v103h-54v-96.3c0-22.4-7.8-37.6-27.3-37.6-14.9 0-23.8 10.3-27.3 20.2-1.4 3.2-2.2 8.5-2.2 13.5V479h-53.9V360.9zm292.5 118.2-3.2-17.4h-1C805.3 475.6 787.5 483 767 483c-35.2 0-56.1-25.6-56.1-53.3 0-45.1 40.5-66.8 101.9-66.4v-2.5c0-9.2-5-22.4-31.6-22.4-17.7 0-36.5 6-47.9 13.1l-10-34.8c12.1-6.8 35.9-15.3 67.5-15.3 57.9 0 76.3 34.1 76.3 74.9v60.4c0 16.7.7 32.6 2.5 42.2h-48.8zm-6.3-82c-28.4-.4-50.4 6.4-50.4 27.3 0 13.9 9.2 20.6 21.3 20.6 12.6.1 23.9-7.9 28-19.9.7-3 1.1-6.1 1.1-9.2v-18.8zm81-34.4c0-25.5-.7-42.2-1.4-57.1h46.5l1.8 31.9h1.4c8.9-25.2 30.2-35.8 46.9-35.8 3.8-.1 7.6.1 11.4.7v50.8c-4.8-.9-9.7-1.4-14.5-1.4-19.9 0-33.4 10.7-37 27.4-.7 4-1 8-1 12.1v88h-54l-.1-116.6zm462.6 69.5c0 17.7.4 33.4 1.4 46.9h-27.7L1330 451h-.7c-8.2 13.8-26.3 32-56.8 32-27 0-59.3-14.9-59.3-75.3V307.3h31.2v95.1c0 32.6 9.9 54.7 38.3 54.7 20.9 0 35.5-14.6 41.2-28.4 1.9-5.1 2.8-10.5 2.8-16V307.3h31.2v124.9zm36.3 46.9c.7-11.7 1.4-29.1 1.4-44.4V227h30.9v108h.7c11-19.2 30.9-31.6 58.6-31.6 42.6 0 72.8 35.5 72.4 87.7 0 61.4-38.7 92-77 92-24.9 0-44.7-9.6-57.5-32.3h-1.1l-1.4 28.4-27-.1zm32.3-68.9c.1 3.8.6 7.6 1.4 11.4 6 21.6 24.1 36.5 46.8 36.5 32.7 0 52.2-26.6 52.2-66 0-34.4-17.7-63.9-51.1-63.9-21.3 0-41.2 14.5-47.6 38.3-.7 3.6-1.8 7.8-1.8 12.8v30.9zm174.3-11.3c.7 42.2 27.7 59.6 58.9 59.6 22.4 0 35.9-3.9 47.6-8.9l5.3 22.4c-11 5-29.8 10.6-57.2 10.6-52.9 0-84.5-34.8-84.5-86.6s30.5-92.7 80.6-92.7c56.1 0 71 49.4 71 81 0 4.9-.4 9.7-1 14.5l-120.7.1zm91.6-22.4c.4-19.9-8.1-50.8-43.3-50.8-31.6 0-45.4 29.1-48 50.8h91.3zm-516.4-38.3c-28.8-42.4-86.5-53.4-128.9-24.6-42.4 28.8-53.4 86.5-24.6 128.9 25.1 36.9 72.8 50.7 113.7 32.9l35.9 58.3 28.5-19.4-35.9-58.3c31.6-31.4 36.4-80.9 11.3-117.8M1136 444.1c-29.7 20.2-70.1 12.5-90.3-17.2s-12.5-70.1 17.2-90.3c29.7-20.2 70.1-12.5 90.3 17.2 20.1 29.7 12.4 70.1-17.2 90.3" style="fill:#1b171b"/><path class="st1" d="M1936.3 479.8h-22c0-177.2-146.2-321.3-325.9-321.3v-22c191.8 0 347.9 154 347.9 343.3z"/><path class="st1" d="M1951.5 361.7c-26.4-111.2-116.5-204-229.4-236.4l5-17.6c119.2 34.2 214.3 132.2 242.2 249.8l-17.8 4.2zm16.9-104.3c-27.2-59.3-73.6-111.1-130.6-145.7l7.6-12.5c59.5 36.1 107.9 90.2 136.3 152.2l-13.3 6z"/></g></svg>