<svg width="19" height="20" viewBox="0 0 19 20" fill="none" xmlns="http://www.w3.org/2000/svg">
<path d="M7.375 1.25V3.75L6.125 4.375L4.25 2.5L1.75 5L3.625 6.875L3 8.125H0.5V11.875H3L3.625 13.125L1.75 15L4.25 17.5L6.125 15.625L7.375 16.25V18.75H11.125V16.25L12.375 15.625L14.25 17.5L16.75 15L14.875 13.125L15.5 11.875H18V8.125H15.5L14.875 6.875L16.75 5L14.25 2.5L12.375 4.375L11.125 3.75V1.25H7.375Z" stroke="#272827" stroke-linecap="round" stroke-linejoin="round"/>
<path d="M9.25 12.5C10.6307 12.5 11.75 11.3807 11.75 10C11.75 8.61929 10.6307 7.5 9.25 7.5C7.86929 7.5 6.75 8.61929 6.75 10C6.75 11.3807 7.86929 12.5 9.25 12.5Z" stroke="#272827" stroke-linecap="round" stroke-linejoin="round"/>
</svg>
