<svg width="1920" height="548" fill="none" xmlns="http://www.w3.org/2000/svg"><g clip-path="url(#a)"><path fill="url(#b)" d="M0 0h1920v548H0z"/><g opacity=".3" clip-path="url(#c)" stroke="#AAED75" stroke-width="2"><path d="M997.882-32.328c2.838 6.38 4.048 12.703 3.758 17.742-.29 5.098-2.083 8.579-4.907 9.833-2.824 1.254-6.607.248-10.585-2.953-3.932-3.165-7.809-8.305-10.643-14.685-1.392-3.134-2.544-7.708-3.481-12.868-.935-5.143-1.646-10.8-2.179-16.067a357.84 357.84 0 0 1-1.288-16.873 359.747 359.747 0 0 1 11.654 12.27c3.549 3.926 7.27 8.247 10.459 12.39 3.199 4.155 5.82 8.076 7.212 11.21zM975.23 23.84c-1.11 2.883-4.496 4.846-9.573 5.395-5.018.543-11.394-.35-17.908-2.857-3.201-1.233-7.25-3.652-11.562-6.638-4.298-2.975-8.801-6.473-12.901-9.82a358.809 358.809 0 0 1-12.84-11.018 358.812 358.812 0 0 1 16.916.436c5.286.265 10.973.69 16.156 1.364 5.2.677 9.826 1.596 13.026 2.828 6.516 2.509 11.845 6.122 15.204 9.89 3.398 3.812 4.593 7.538 3.482 10.42zM894.374.075a357.693 357.693 0 0 1-12.27 11.654c-3.926 3.55-8.247 7.27-12.389 10.458-4.156 3.2-8.077 5.82-11.212 7.213-6.38 2.833-12.702 4.046-17.742 3.757-5.098-.292-8.579-2.082-9.833-4.906-1.254-2.824-.248-6.607 2.954-10.585 3.165-3.932 8.304-7.81 14.684-10.643 3.135-1.392 7.708-2.544 12.868-3.482 5.143-.934 10.801-1.645 16.067-2.178A358.649 358.649 0 0 1 894.374.075zM952.672 58.118c6.38-2.833 12.703-4.046 17.743-3.758 5.097.293 8.578 2.083 9.832 4.907 1.255 2.823.249 6.607-2.953 10.584-3.165 3.933-8.304 7.81-14.684 10.643-3.135 1.392-7.709 2.544-12.869 3.482-5.142.935-10.8 1.646-16.066 2.179a358.73 358.73 0 0 1-16.873 1.288 360.4 360.4 0 0 1 12.269-11.654c3.926-3.55 8.248-7.27 12.389-10.459 4.156-3.2 8.078-5.82 11.212-7.212zM904.132 102.03c.824-.933 1.545-1.74 2.134-2.395a357.621 357.621 0 0 1-.435 16.915c-.266 5.286-.691 10.972-1.365 16.155-.677 5.201-1.596 9.827-2.829 13.029-2.507 6.513-6.12 11.841-9.888 15.2-3.812 3.398-7.539 4.594-10.422 3.485-2.882-1.108-4.846-4.493-5.395-9.57-.543-5.018.349-11.395 2.858-17.911 1.232-3.2 3.651-7.248 6.636-11.56 2.976-4.297 6.473-8.801 9.82-12.901a358.692 358.692 0 0 1 8.886-10.447zM835.905 62.14c1.11-2.883 4.497-4.846 9.574-5.395 5.018-.542 11.394.35 17.908 2.857 3.201 1.233 7.25 3.652 11.562 6.638 4.297 2.975 8.801 6.473 12.9 9.82a357.864 357.864 0 0 1 12.841 11.019 358.63 358.63 0 0 1-16.916-.436c-5.286-.266-10.973-.691-16.156-1.365-5.201-.677-9.826-1.596-13.026-2.828-6.517-2.508-11.845-6.122-15.204-9.89-3.398-3.811-4.593-7.538-3.483-10.42zM1008.84 80.766c2.88 1.11 4.84 4.497 5.39 9.573.55 5.019-.35 11.395-2.85 17.908-1.24 3.202-3.66 7.251-6.64 11.563-2.98 4.297-6.474 8.8-9.821 12.9a357.518 357.518 0 0 1-11.019 12.841 360.06 360.06 0 0 1 .436-16.917c.266-5.286.691-10.972 1.365-16.155.676-5.201 1.596-9.826 2.828-13.027 2.508-6.516 6.122-11.844 9.889-15.203 3.812-3.398 7.542-4.593 10.422-3.483zM985.258 164.828a338.143 338.143 0 0 1-.184-3.202 358.546 358.546 0 0 1 11.654 12.269c3.552 3.926 7.272 8.247 10.462 12.389 3.2 4.156 5.82 8.077 7.21 11.212 2.83 6.38 4.05 12.703 3.76 17.742-.3 5.098-2.09 8.579-4.91 9.833-2.82 1.254-6.61.248-10.58-2.953-3.937-3.165-7.814-8.304-10.648-14.685-1.392-3.134-2.543-7.708-3.481-12.868-.935-5.143-1.646-10.801-2.179-16.067a357.905 357.905 0 0 1-1.104-13.67zM936.384 186.016c-6.38 2.833-12.703 4.046-17.742 3.757-5.098-.292-8.579-2.082-9.833-4.906-1.254-2.824-.248-6.607 2.953-10.584 3.165-3.933 8.305-7.81 14.685-10.644 3.134-1.392 7.708-2.543 12.868-3.481 5.143-.935 10.801-1.646 16.067-2.179a357.905 357.905 0 0 1 16.873-1.288 357.13 357.13 0 0 1-12.27 11.654c-3.926 3.549-8.247 7.27-12.389 10.459-4.156 3.199-8.077 5.82-11.212 7.212zM1043.12 103.328c-2.84-6.38-4.05-12.702-3.76-17.742.29-5.098 2.08-8.579 4.9-9.833 2.83-1.254 6.61-.248 10.59 2.954 3.93 3.165 7.81 8.304 10.64 14.684 1.39 3.135 2.55 7.708 3.48 12.869.94 5.142 1.65 10.8 2.18 16.066.53 5.264.89 10.125 1.11 13.671l.18 3.202c-.62-.624-1.38-1.393-2.25-2.284-2.49-2.54-5.86-6.061-9.4-9.986-3.55-3.926-7.27-8.247-10.46-12.389-3.2-4.156-5.82-8.077-7.21-11.212zM1084.63 149.734a359.927 359.927 0 0 1 16.92.436c5.28.266 10.97.69 16.15 1.365 5.21.676 9.83 1.596 13.03 2.828 6.52 2.508 11.84 6.121 15.2 9.889 3.4 3.811 4.6 7.539 3.49 10.421-1.11 2.883-4.49 4.846-9.57 5.395-5.02.543-11.4-.349-17.91-2.857-3.2-1.232-7.25-3.651-11.56-6.637-4.3-2.975-8.8-6.473-12.9-9.82-4.1-3.346-7.79-6.533-10.45-8.885-.93-.824-1.74-1.546-2.4-2.135zM1047.14 220.095c-2.88-1.11-4.85-4.497-5.4-9.573-.54-5.019.35-11.395 2.86-17.909 1.23-3.201 3.65-7.25 6.64-11.562 2.97-4.297 6.47-8.801 9.82-12.9 3.35-4.099 6.53-7.785 8.88-10.447.83-.933 1.55-1.739 2.14-2.394 0 .881-.01 1.963-.02 3.208a351.34 351.34 0 0 1-.42 13.708c-.26 5.287-.69 10.973-1.36 16.156-.68 5.201-1.6 9.826-2.83 13.027-2.51 6.516-6.12 11.844-9.89 15.203-3.81 3.398-7.54 4.593-10.42 3.483zM1065.77 47.16v-.001c1.11-2.883 4.49-4.847 9.57-5.395 5.02-.543 11.39.35 17.91 2.857 3.2 1.232 7.25 3.652 11.56 6.637 4.3 2.976 8.8 6.473 12.9 9.82 4.1 3.346 7.78 6.534 10.45 8.885.93.824 1.74 1.545 2.39 2.134a359.371 359.371 0 0 1-16.92-.436c-5.28-.266-10.97-.69-16.15-1.365-5.2-.676-9.83-1.595-13.03-2.827-6.51-2.509-11.84-6.122-15.2-9.89-3.4-3.812-4.6-7.538-3.48-10.42zM1146.62 70.923c.63-.62 1.4-1.382 2.29-2.252 2.54-2.483 6.06-5.853 9.98-9.401 3.93-3.55 8.25-7.27 12.39-10.46 4.16-3.199 8.08-5.82 11.22-7.212 6.38-2.833 12.7-4.046 17.74-3.757 5.1.292 8.58 2.082 9.83 4.906s.25 6.607-2.95 10.585c-3.17 3.932-8.31 7.81-14.69 10.643-3.13 1.392-7.71 2.544-12.87 3.482-5.14.935-10.8 1.646-16.06 2.178a360.666 360.666 0 0 1-16.88 1.288zM1171.02 119.616c2.83 6.38 4.04 12.703 3.75 17.742-.29 5.098-2.08 8.579-4.9 9.833-2.83 1.254-6.61.249-10.59-2.953-3.93-3.165-7.81-8.304-10.64-14.684-1.39-3.135-2.54-7.709-3.48-12.869-.94-5.143-1.65-10.801-2.18-16.067-.53-5.263-.89-10.124-1.11-13.67l-.18-3.202c.62.624 1.38 1.393 2.25 2.283 2.49 2.54 5.86 6.062 9.4 9.986 3.55 3.926 7.28 8.248 10.46 12.389 3.2 4.156 5.82 8.078 7.22 11.212zM1088.33 12.882c-6.38 2.834-12.71 4.046-17.74 3.758-5.1-.293-8.58-2.083-9.84-4.907-1.25-2.823-.25-6.606 2.96-10.584 3.16-3.933 8.3-7.81 14.68-10.643 3.13-1.393 7.71-2.544 12.87-3.482 5.14-.935 10.8-1.646 16.07-2.178a357.426 357.426 0 0 1 16.87-1.289c-.63.622-1.4 1.383-2.29 2.253a363.689 363.689 0 0 1-9.98 9.4c-3.93 3.55-8.25 7.271-12.39 10.46-4.16 3.2-8.08 5.82-11.21 7.212zM1205.09 8.86c-1.11 2.884-4.49 4.847-9.57 5.396-5.02.542-11.39-.35-17.91-2.858-3.2-1.232-7.25-3.652-11.56-6.637-4.3-2.975-8.8-6.473-12.9-9.82a367.87 367.87 0 0 1-10.45-8.885 305.47 305.47 0 0 1-2.39-2.134 359.371 359.371 0 0 1 16.92.436c5.28.266 10.97.69 16.15 1.365 5.2.676 9.83 1.596 13.03 2.828 6.51 2.508 11.84 6.122 15.2 9.89 3.4 3.811 4.59 7.538 3.48 10.42z"/></g><g clip-path="url(#d)" stroke="#8AC6A2" stroke-width="2"><path d="M1720.92 220.321c-.17 6.979-1.79 13.212-4.21 17.642-2.44 4.481-5.55 6.86-8.64 6.783-3.09-.077-6.08-2.606-8.3-7.203-2.2-4.545-3.5-10.849-3.33-17.828.09-3.429 1.01-8.055 2.37-13.12 1.36-5.047 3.14-10.464 4.91-15.451 1.78-4.984 3.54-9.528 4.86-12.825.47-1.156.87-2.158 1.21-2.973.29.83.65 1.852 1.06 3.029 1.15 3.359 2.69 7.984 4.21 13.05 1.53 5.069 3.04 10.567 4.15 15.676 1.11 5.126 1.79 9.792 1.71 13.22zM1655.43 110.316c2.23-2.129 6.13-2.454 10.96-.775 4.76 1.659 10.14 5.197 14.96 10.255 2.36 2.484 4.98 6.405 7.6 10.949 2.61 4.53 5.18 9.62 7.45 14.4 2.27 4.779 4.24 9.239 5.63 12.505.49 1.144.91 2.141 1.25 2.954-.79-.379-1.77-.848-2.89-1.394a362.07 362.07 0 0 1-12.2-6.245c-4.67-2.505-9.62-5.325-14.02-8.155-4.41-2.839-8.19-5.652-10.56-8.137-4.81-5.056-8.08-10.603-9.5-15.447-1.44-4.9-.92-8.78 1.32-10.91zM1767.31 113.089c2.13 2.238 2.45 6.139.77 10.962-1.66 4.767-5.2 10.146-10.25 14.957-2.49 2.365-6.41 4.987-10.95 7.604-4.53 2.609-9.62 5.179-14.4 7.45-4.78 2.27-9.24 4.235-12.51 5.633-1.14.49-2.14.91-2.95 1.249.38-.795.85-1.77 1.39-2.889 1.56-3.192 3.75-7.549 6.25-12.209 2.51-4.663 5.33-9.619 8.16-14.014 2.83-4.409 5.65-8.195 8.13-10.559 5.06-4.813 10.61-8.08 15.45-9.501 4.9-1.438 8.78-.921 10.91 1.317zM1676.39 261.37c-2.24 2.129-6.14 2.453-10.96.774-4.77-1.66-10.15-5.198-14.96-10.254-2.36-2.485-4.99-6.406-7.6-10.951-2.61-4.529-5.18-9.619-7.45-14.4a363.642 363.642 0 0 1-6.89-15.457 350.764 350.764 0 0 1 15.1 7.641c4.67 2.505 9.62 5.325 14.02 8.154 4.41 2.839 8.19 5.652 10.56 8.136 4.81 5.058 8.08 10.606 9.5 15.45 1.43 4.899.92 8.779-1.32 10.907zM1613.51 205.256a355.698 355.698 0 0 1-16.08 5.274c-5.07 1.526-10.57 3.037-15.67 4.143-5.13 1.111-9.8 1.799-13.22 1.714-6.98-.173-13.22-1.785-17.65-4.205-4.48-2.448-6.86-5.557-6.78-8.646.08-3.089 2.61-6.076 7.2-8.299 4.55-2.197 10.85-3.499 17.83-3.326 3.43.085 8.06 1.004 13.12 2.367 5.05 1.358 10.47 3.139 15.45 4.914a355.47 355.47 0 0 1 15.8 6.064zM1612.33 150.812c.17-6.979 1.79-13.211 4.21-17.641 2.44-4.482 5.55-6.86 8.64-6.784 3.09.077 6.08 2.607 8.3 7.204 2.2 4.544 3.5 10.849 3.33 17.828-.09 3.429-1.01 8.055-2.37 13.119-1.36 5.047-3.14 10.465-4.92 15.451a354.107 354.107 0 0 1-4.85 12.826c-.47 1.155-.87 2.158-1.21 2.972-.29-.83-.65-1.851-1.06-3.028-1.15-3.36-2.69-7.985-4.21-13.051-1.53-5.068-3.04-10.567-4.15-15.675-1.11-5.126-1.8-9.792-1.71-13.221zM1641.32 282.679c6.98.173 13.21 1.786 17.64 4.206 4.48 2.448 6.86 5.557 6.79 8.646-.08 3.088-2.61 6.076-7.21 8.298-4.54 2.198-10.85 3.5-17.83 3.327-3.42-.085-8.05-1.004-13.11-2.367-5.05-1.358-10.47-3.14-15.46-4.915a363.616 363.616 0 0 1-15.79-6.064c.83-.294 1.85-.652 3.03-1.057 3.35-1.155 7.98-2.692 13.05-4.217 5.06-1.525 10.56-3.036 15.67-4.143 5.13-1.11 9.79-1.799 13.22-1.714zM1578.65 301.562c1.14-.49 2.14-.91 2.95-1.249-.37.795-.84 1.77-1.39 2.889a352.613 352.613 0 0 1-6.25 12.209c-2.5 4.662-5.32 9.618-8.15 14.013-2.84 4.409-5.65 8.195-8.14 10.56-5.05 4.812-10.6 8.078-15.44 9.499-4.9 1.438-8.78.921-10.91-1.315-2.13-2.236-2.46-6.137-.78-10.959 1.66-4.767 5.2-10.147 10.26-14.96 2.48-2.364 6.4-4.985 10.95-7.603 4.52-2.608 9.61-5.179 14.4-7.45 4.77-2.27 9.23-4.235 12.5-5.634zM1534.09 236.291c2.24-2.129 6.14-2.453 10.96-.774 4.77 1.66 10.15 5.198 14.96 10.254 2.36 2.485 4.99 6.406 7.6 10.951 2.61 4.529 5.18 9.619 7.45 14.4 2.27 4.778 4.24 9.238 5.64 12.503.49 1.144.91 2.141 1.24 2.954-.79-.379-1.77-.848-2.88-1.394-3.2-1.558-7.55-3.743-12.21-6.247-4.67-2.505-9.62-5.325-14.02-8.154-4.41-2.839-8.19-5.652-10.56-8.136-4.81-5.058-8.08-10.606-9.5-15.45-1.44-4.899-.92-8.779 1.32-10.907zM1682.37 327.206c2.13 2.238 2.45 6.139.77 10.962-1.66 4.767-5.19 10.146-10.25 14.957-2.48 2.365-6.41 4.987-10.95 7.604-4.53 2.609-9.62 5.18-14.4 7.45-4.78 2.27-9.24 4.236-12.5 5.634-1.15.489-2.14.909-2.96 1.248.38-.794.85-1.77 1.4-2.888 1.56-3.193 3.74-7.55 6.24-12.21 2.51-4.663 5.33-9.619 8.16-14.013 2.84-4.41 5.65-8.196 8.13-10.56 5.06-4.813 10.61-8.08 15.45-9.501 4.9-1.437 8.78-.92 10.91 1.317zM1625.05 393.062c.46-1.156.87-2.158 1.21-2.972.29.829.65 1.851 1.05 3.028a339.73 339.73 0 0 1 4.22 13.051c1.53 5.068 3.04 10.567 4.14 15.675 1.11 5.126 1.8 9.792 1.72 13.221-.18 6.978-1.79 13.211-4.21 17.641-2.45 4.481-5.55 6.86-8.64 6.783-3.09-.076-6.08-2.606-8.3-7.203-2.2-4.544-3.5-10.849-3.33-17.828.09-3.429 1.01-8.055 2.37-13.12 1.36-5.047 3.14-10.464 4.91-15.45 1.78-4.985 3.54-9.528 4.86-12.826zM1571.81 391.27c-6.98-.173-13.21-1.786-17.64-4.206-4.48-2.447-6.86-5.556-6.78-8.645.07-3.089 2.6-6.076 7.2-8.299 4.55-2.197 10.85-3.499 17.83-3.326 3.43.085 8.05 1.003 13.12 2.366 5.05 1.359 10.46 3.14 15.45 4.915 4.98 1.774 9.53 3.538 12.83 4.858 1.15.463 2.15.871 2.97 1.206a362.107 362.107 0 0 1-16.08 5.274c-5.07 1.526-10.57 3.037-15.68 4.143-5.12 1.111-9.79 1.799-13.22 1.714zM1703.68 362.277c.17-6.979 1.78-13.212 4.2-17.642 2.45-4.481 5.56-6.859 8.65-6.783 3.09.077 6.07 2.606 8.3 7.203 2.19 4.545 3.5 10.85 3.32 17.829-.08 3.428-1 8.054-2.36 13.119-1.36 5.047-3.14 10.464-4.92 15.451a351.072 351.072 0 0 1-4.86 12.825c-.46 1.156-.87 2.159-1.2 2.973-.3-.83-.65-1.851-1.06-3.029a358.862 358.862 0 0 1-4.22-13.05c-1.52-5.068-3.03-10.567-4.14-15.676-1.11-5.125-1.8-9.791-1.71-13.22zM1721.31 421.994a359.724 359.724 0 0 1 15.1 7.64c4.66 2.504 9.62 5.324 14.01 8.154 4.41 2.839 8.2 5.652 10.56 8.137 4.82 5.056 8.08 10.604 9.5 15.447 1.44 4.9.92 8.78-1.31 10.91-2.24 2.13-6.14 2.454-10.96.775-4.77-1.659-10.15-5.197-14.96-10.255-2.36-2.484-4.99-6.404-7.6-10.949-2.61-4.529-5.18-9.619-7.45-14.4a363.518 363.518 0 0 1-6.89-15.459zM1657.29 469.509c-2.13-2.238-2.45-6.139-.77-10.962 1.66-4.767 5.19-10.145 10.25-14.957 2.49-2.365 6.41-4.987 10.95-7.604 4.53-2.609 9.62-5.179 14.4-7.45 4.78-2.27 9.24-4.235 12.51-5.633 1.14-.49 2.14-.91 2.95-1.249-.38.795-.85 1.77-1.39 2.889a371.304 371.304 0 0 1-6.25 12.21c-2.51 4.662-5.33 9.618-8.16 14.013-2.84 4.409-5.65 8.195-8.13 10.559-5.06 4.813-10.61 8.08-15.45 9.501-4.9 1.438-8.78.921-10.91-1.317zM1748.21 321.225c2.23-2.13 6.14-2.453 10.96-.774 4.77 1.66 10.14 5.197 14.96 10.254 2.36 2.485 4.98 6.405 7.6 10.95 2.61 4.53 5.18 9.62 7.45 14.4 2.27 4.779 4.23 9.238 5.63 12.504.49 1.144.91 2.141 1.25 2.953a359.724 359.724 0 0 1-15.1-7.64c-4.66-2.505-9.62-5.325-14.01-8.155-4.41-2.839-8.2-5.651-10.56-8.135-4.81-5.058-8.08-10.606-9.5-15.45-1.44-4.9-.92-8.779 1.32-10.907zM1811.09 377.338a357.878 357.878 0 0 1 16.08-5.274c5.07-1.526 10.57-3.037 15.67-4.144 5.13-1.11 9.8-1.798 13.22-1.713 6.98.173 13.22 1.785 17.65 4.205 4.48 2.448 6.86 5.557 6.78 8.646-.08 3.089-2.61 6.076-7.2 8.299-4.55 2.197-10.85 3.499-17.83 3.326-3.43-.085-8.06-1.004-13.12-2.367-5.05-1.358-10.47-3.139-15.45-4.914a355.47 355.47 0 0 1-15.8-6.064zM1812.27 431.785c-.17 6.979-1.79 13.212-4.21 17.642-2.44 4.481-5.55 6.859-8.64 6.783-3.09-.077-6.08-2.606-8.3-7.203-2.2-4.545-3.5-10.85-3.33-17.828.09-3.429 1.01-8.055 2.37-13.12 1.36-5.047 3.14-10.464 4.91-15.451 1.78-4.984 3.54-9.528 4.86-12.825.47-1.156.87-2.158 1.21-2.973.29.83.65 1.851 1.06 3.029 1.15 3.359 2.69 7.984 4.21 13.05 1.53 5.069 3.04 10.567 4.15 15.676 1.11 5.126 1.79 9.791 1.71 13.22zM1783.28 299.919c-6.98-.173-13.21-1.785-17.64-4.205-4.49-2.448-6.86-5.557-6.79-8.646.08-3.089 2.61-6.076 7.21-8.299 4.54-2.197 10.85-3.499 17.82-3.326 3.43.085 8.06 1.004 13.12 2.367 5.05 1.358 10.47 3.14 15.45 4.914a357.378 357.378 0 0 1 15.8 6.065c-.83.294-1.85.652-3.03 1.057a351.391 351.391 0 0 1-13.05 4.217c-5.06 1.525-10.56 3.036-15.67 4.143-5.13 1.11-9.79 1.798-13.22 1.713zM1893.28 234.428c2.13 2.236 2.46 6.136.78 10.959-1.66 4.767-5.2 10.146-10.26 14.96-2.48 2.364-6.4 4.985-10.95 7.602-4.53 2.608-9.62 5.179-14.4 7.45a347.74 347.74 0 0 1-12.5 5.634c-1.14.49-2.14.91-2.95 1.249.37-.794.84-1.769 1.39-2.888 1.56-3.192 3.74-7.549 6.24-12.209 2.51-4.662 5.33-9.618 8.16-14.013 2.84-4.41 5.65-8.196 8.14-10.561 5.05-4.811 10.6-8.078 15.44-9.5 4.9-1.438 8.78-.921 10.91 1.317zM1890.51 346.307c-2.24 2.13-6.14 2.453-10.96.774-4.77-1.66-10.15-5.197-14.96-10.253-2.36-2.485-4.99-6.406-7.6-10.951-2.61-4.53-5.18-9.619-7.45-14.4a363.58 363.58 0 0 1-6.89-15.457c.8.378 1.78.848 2.89 1.394 3.2 1.558 7.55 3.742 12.21 6.246 4.67 2.505 9.62 5.325 14.02 8.155 4.41 2.839 8.19 5.651 10.56 8.135 4.81 5.058 8.08 10.606 9.5 15.45 1.43 4.9.92 8.779-1.32 10.907zM1742.23 255.39c-2.13-2.238-2.46-6.139-.78-10.962 1.66-4.767 5.2-10.146 10.26-14.957 2.48-2.365 6.4-4.987 10.95-7.604 4.53-2.609 9.62-5.179 14.4-7.45 4.77-2.27 9.23-4.235 12.5-5.633 1.14-.49 2.14-.91 2.95-1.249-.38.795-.84 1.77-1.39 2.889a351.707 351.707 0 0 1-6.25 12.209c-2.5 4.663-5.32 9.619-8.15 14.014-2.84 4.409-5.65 8.195-8.14 10.559-5.06 4.813-10.6 8.08-15.45 9.501-4.9 1.438-8.78.921-10.9-1.317zM1798.34 192.511c-.29-.83-.65-1.852-1.06-3.029a361.215 361.215 0 0 1-4.21-13.05c-1.53-5.069-3.04-10.567-4.15-15.676-1.11-5.126-1.8-9.792-1.71-13.22.17-6.979 1.78-13.212 4.2-17.642 2.45-4.481 5.56-6.86 8.65-6.783 3.09.077 6.08 2.606 8.3 7.203 2.2 4.545 3.5 10.849 3.32 17.828-.08 3.429-1 8.055-2.36 13.12-1.36 5.047-3.14 10.464-4.92 15.451a333.471 333.471 0 0 1-4.86 12.825c-.46 1.156-.87 2.158-1.2 2.973zM1852.79 191.331c6.98.173 13.21 1.785 17.64 4.205 4.48 2.448 6.86 5.557 6.78 8.646-.08 3.089-2.6 6.076-7.2 8.299-4.55 2.197-10.85 3.499-17.83 3.326-3.43-.085-8.05-1.004-13.12-2.367-5.05-1.358-10.46-3.139-15.45-4.914a362.85 362.85 0 0 1-12.83-4.859c-1.15-.462-2.15-.871-2.97-1.205a357.878 357.878 0 0 1 16.08-5.274c5.07-1.526 10.57-3.037 15.68-4.143 5.12-1.111 9.79-1.799 13.22-1.714z"/></g><g clip-path="url(#e)" filter="url(#f)" stroke="#AAED75" stroke-width="2"><path d="M1723.78 199.247c-.23 9.089-2.33 17.221-5.49 23.016-3.2 5.846-7.31 9.056-11.49 8.952-4.17-.103-8.12-3.512-11.02-9.51-2.87-5.945-4.57-14.171-4.34-23.26.11-4.484 1.31-10.512 3.08-17.086 1.76-6.557 4.07-13.591 6.38-20.063a469.21 469.21 0 0 1 6.3-16.646 661.5 661.5 0 0 1 1.86-4.573c.43 1.184.98 2.767 1.63 4.66a463.77 463.77 0 0 1 5.48 16.938c1.98 6.578 3.94 13.718 5.38 20.354 1.44 6.654 2.34 12.734 2.23 17.218zM1638.33 56.345c3.02-2.879 8.23-3.261 14.52-1.071 6.23 2.17 13.25 6.79 19.52 13.376 3.09 3.25 6.5 8.36 9.9 14.259 3.39 5.883 6.73 12.493 9.68 18.698a488.731 488.731 0 0 1 7.31 16.228c.79 1.841 1.43 3.388 1.92 4.55a468.405 468.405 0 0 1-20.3-10.248c-6.05-3.251-12.48-6.912-18.19-10.588-5.73-3.686-10.66-7.35-13.75-10.599-6.27-6.585-10.54-13.82-12.4-20.157-1.87-6.392-1.23-11.57 1.79-14.448zM1783.86 59.952c2.88 3.025 3.26 8.229 1.07 14.52-2.17 6.237-6.79 13.251-13.37 19.518-3.25 3.093-8.36 6.507-14.26 9.905-5.89 3.388-12.5 6.726-18.7 9.673a461.168 461.168 0 0 1-20.78 9.23c.54-1.136 1.27-2.65 2.14-4.449 2.03-4.143 4.86-9.797 8.11-15.847 3.25-6.05 6.91-12.486 10.59-18.195 3.68-5.724 7.35-10.659 10.6-13.75 6.58-6.269 13.82-10.534 20.16-12.393 6.39-1.876 11.57-1.236 14.44 1.788zM1665.93 252.696c-3.03 2.879-8.23 3.26-14.52 1.069-6.24-2.171-13.25-6.79-19.52-13.375-3.09-3.25-6.51-8.36-9.9-14.26-3.39-5.884-6.73-12.493-9.68-18.697a489.666 489.666 0 0 1-7.31-16.228c-.79-1.84-1.44-3.388-1.92-4.549a468.405 468.405 0 0 1 20.3 10.249c6.05 3.251 12.49 6.913 18.19 10.588 5.73 3.686 10.66 7.349 13.75 10.598 6.27 6.587 10.54 13.823 12.4 20.159 1.87 6.393 1.23 11.569-1.79 14.446zM1585 179.72a472.2 472.2 0 0 1-21.6 7.105c-6.58 1.98-13.72 3.942-20.36 5.379-6.65 1.442-12.73 2.341-17.21 2.23-9.09-.226-17.22-2.326-23.02-5.491-5.85-3.194-9.06-7.307-8.95-11.482.1-4.175 3.51-8.124 9.51-11.024 5.94-2.874 14.17-4.569 23.26-4.344 4.48.112 10.51 1.311 17.08 3.08 6.56 1.765 13.59 4.078 20.07 6.382a462.605 462.605 0 0 1 16.64 6.305c1.86.744 3.41 1.38 4.58 1.86zM1582.34 109.078c.23-9.09 2.33-17.222 5.49-23.017 3.19-5.846 7.31-9.056 11.48-8.952 4.18.103 8.13 3.513 11.03 9.51 2.87 5.945 4.57 14.171 4.34 23.26-.11 4.484-1.31 10.512-3.08 17.086-1.76 6.557-4.08 13.591-6.38 20.063a448.242 448.242 0 0 1-6.31 16.646c-.74 1.858-1.38 3.412-1.86 4.573a472.089 472.089 0 0 1-7.1-21.598c-1.98-6.577-3.94-13.717-5.38-20.354-1.44-6.653-2.34-12.733-2.23-17.217zM1620.25 279.823c9.09.225 17.22 2.325 23.01 5.49 5.85 3.194 9.06 7.307 8.96 11.482-.11 4.175-3.52 8.124-9.51 11.024-5.95 2.875-14.18 4.569-23.26 4.344-4.49-.111-10.52-1.311-17.09-3.08-6.56-1.765-13.59-4.078-20.06-6.381a465.719 465.719 0 0 1-21.22-8.166c1.18-.423 2.76-.98 4.66-1.631 4.36-1.5 10.36-3.494 16.94-5.474 6.57-1.979 13.71-3.941 20.35-5.379 6.65-1.441 12.73-2.341 17.22-2.229zM1538.84 304.338c1.84-.789 3.38-1.437 4.55-1.919-.54 1.136-1.27 2.649-2.15 4.448a461.342 461.342 0 0 1-8.1 15.846c-3.25 6.05-6.91 12.486-10.59 18.195-3.69 5.724-7.35 10.659-10.6 13.752-6.58 6.266-13.82 10.53-20.16 12.39-6.39 1.875-11.57 1.237-14.45-1.786-2.87-3.023-3.26-8.225-1.07-14.517 2.17-6.236 6.79-13.252 13.38-19.521 3.25-3.091 8.36-6.505 14.26-9.903 5.88-3.388 12.49-6.726 18.7-9.673 6.2-2.947 11.99-5.498 16.23-7.312zM1480.95 219.738v-.001c3.03-2.878 8.23-3.259 14.52-1.069 6.24 2.172 13.25 6.79 19.52 13.375 3.09 3.25 6.51 8.361 9.9 14.26 3.39 5.884 6.73 12.494 9.68 18.698 2.94 6.203 5.5 11.99 7.31 16.228.79 1.84 1.44 3.387 1.92 4.548a468.666 468.666 0 0 1-20.3-10.249c-6.05-3.251-12.48-6.912-18.19-10.588-5.73-3.685-10.66-7.349-13.75-10.597-6.27-6.588-10.54-13.824-12.4-20.16-1.87-6.392-1.23-11.569 1.79-14.445zM1673.7 337.667c2.87 3.025 3.26 8.228 1.07 14.52-2.18 6.236-6.79 13.251-13.38 19.518-3.25 3.092-8.36 6.507-14.26 9.905-5.88 3.388-12.49 6.726-18.7 9.673a460.912 460.912 0 0 1-16.23 7.311c-1.84.788-3.38 1.437-4.54 1.919.53-1.137 1.26-2.65 2.14-4.449a460.35 460.35 0 0 1 8.1-15.847c3.26-6.051 6.92-12.487 10.59-18.195 3.69-5.724 7.35-10.659 10.6-13.75 6.59-6.269 13.82-10.534 20.16-12.393 6.39-1.876 11.57-1.236 14.45 1.788zM1598.86 423.177c.74-1.859 1.38-3.412 1.86-4.574.42 1.185.98 2.767 1.63 4.66 1.5 4.36 3.5 10.363 5.48 16.938 1.98 6.578 3.94 13.718 5.37 20.354 1.45 6.654 2.35 12.734 2.23 17.218-.22 9.089-2.32 17.221-5.49 23.016-3.19 5.847-7.3 9.056-11.48 8.953-4.17-.104-8.12-3.513-11.02-9.511-2.88-5.944-4.57-14.171-4.35-23.26.12-4.484 1.31-10.512 3.08-17.086 1.77-6.557 4.08-13.591 6.39-20.062a467.72 467.72 0 0 1 6.3-16.646zM1530.08 421.26c-9.09-.226-17.22-2.326-23.02-5.491-5.85-3.194-9.05-7.307-8.95-11.482.1-4.175 3.51-8.124 9.51-11.024 5.94-2.874 14.17-4.569 23.26-4.343 4.48.111 10.51 1.31 17.09 3.079 6.55 1.765 13.59 4.078 20.06 6.382a466.46 466.46 0 0 1 16.64 6.305c1.86.744 3.42 1.38 4.58 1.86a472.2 472.2 0 0 1-21.6 7.105c-6.58 1.98-13.72 3.942-20.35 5.379-6.66 1.442-12.74 2.341-17.22 2.23zM1700.82 383.352c.22-9.089 2.32-17.221 5.49-23.016 3.19-5.847 7.31-9.056 11.48-8.953 4.18.104 8.13 3.513 11.03 9.511 2.87 5.945 4.56 14.171 4.34 23.26-.11 4.484-1.31 10.512-3.08 17.086-1.77 6.557-4.08 13.591-6.38 20.062a465.44 465.44 0 0 1-6.31 16.646c-.74 1.859-1.38 3.412-1.86 4.574a472.089 472.089 0 0 1-7.1-21.598c-1.98-6.578-3.94-13.718-5.38-20.354-1.44-6.654-2.34-12.734-2.23-17.218zM1723.42 460.214a468.884 468.884 0 0 1 20.29 10.248c6.05 3.251 12.49 6.912 18.2 10.588 5.72 3.686 10.66 7.349 13.75 10.599 6.27 6.585 10.53 13.82 12.39 20.157 1.88 6.392 1.24 11.57-1.79 14.449-3.02 2.878-8.22 3.26-14.51 1.07-6.24-2.17-13.25-6.789-19.52-13.376-3.09-3.249-6.51-8.359-9.91-14.258-3.38-5.884-6.72-12.494-9.67-18.698a450.3 450.3 0 0 1-7.31-16.229c-.79-1.841-1.44-3.388-1.92-4.55zM1640.74 522.647c-2.88-3.025-3.26-8.228-1.07-14.52 2.17-6.236 6.79-13.251 13.37-19.518 3.25-3.092 8.36-6.507 14.26-9.905 5.89-3.388 12.5-6.726 18.7-9.673 6.2-2.946 11.99-5.497 16.23-7.311 1.84-.788 3.39-1.437 4.55-1.919-.54 1.137-1.27 2.65-2.14 4.449a480.863 480.863 0 0 1-8.11 15.847c-3.25 6.051-6.91 12.487-10.59 18.196-3.69 5.723-7.35 10.658-10.6 13.749-6.58 6.269-13.82 10.534-20.16 12.394-6.39 1.875-11.57 1.236-14.44-1.789zM1758.67 329.9c3.02-2.879 8.23-3.26 14.52-1.07 6.23 2.172 13.25 6.79 19.51 13.375 3.1 3.25 6.51 8.361 9.91 14.26 3.39 5.884 6.73 12.494 9.67 18.698 2.95 6.203 5.5 11.99 7.31 16.228.79 1.84 1.44 3.387 1.92 4.549-1.13-.539-2.65-1.264-4.45-2.142a471.028 471.028 0 0 1-15.84-8.107c-6.05-3.252-12.49-6.913-18.2-10.589-5.72-3.685-10.66-7.348-13.75-10.597-6.27-6.587-10.53-13.823-12.39-20.16-1.88-6.392-1.24-11.569 1.79-14.445zM1839.6 402.875a472.2 472.2 0 0 1 21.6-7.105c6.58-1.98 13.72-3.942 20.36-5.379 6.65-1.442 12.73-2.341 17.21-2.23 9.09.226 17.22 2.326 23.02 5.491 5.85 3.194 9.06 7.307 8.95 11.482-.1 4.175-3.51 8.124-9.51 11.024-5.94 2.874-14.17 4.569-23.26 4.344-4.48-.112-10.51-1.311-17.08-3.08-6.56-1.765-13.6-4.078-20.07-6.382a462.605 462.605 0 0 1-16.64-6.305c-1.86-.744-3.41-1.38-4.58-1.86zM1842.26 473.522c-.23 9.089-2.33 17.221-5.49 23.016-3.19 5.847-7.31 9.056-11.48 8.953-4.18-.104-8.13-3.513-11.03-9.51-2.87-5.945-4.57-14.172-4.34-23.261.11-4.484 1.31-10.512 3.08-17.086 1.76-6.557 4.08-13.591 6.38-20.062a447.56 447.56 0 0 1 6.31-16.646c.74-1.859 1.38-3.412 1.86-4.574a467.384 467.384 0 0 1 7.1 21.598c1.98 6.578 3.94 13.718 5.38 20.354 1.44 6.654 2.34 12.734 2.23 17.218zM1804.35 302.776c-9.09-.225-17.22-2.325-23.01-5.491-5.85-3.193-9.06-7.306-8.96-11.481.11-4.175 3.52-8.124 9.51-11.024 5.95-2.875 14.18-4.569 23.26-4.344 4.49.111 10.52 1.311 17.09 3.08 6.56 1.765 13.59 4.078 20.06 6.381a465.719 465.719 0 0 1 21.22 8.166c-1.18.423-2.76.98-4.66 1.631a461.8 461.8 0 0 1-16.94 5.473c-6.57 1.98-13.71 3.942-20.35 5.38-6.65 1.441-12.73 2.34-17.22 2.229zM1947.25 217.331c2.88 3.023 3.27 8.225 1.08 14.516-2.18 6.237-6.79 13.252-13.38 19.521-3.25 3.092-8.36 6.506-14.26 9.903-5.88 3.389-12.49 6.727-18.7 9.674a463.029 463.029 0 0 1-16.23 7.312c-1.84.788-3.38 1.437-4.55 1.919.54-1.136 1.27-2.649 2.15-4.448 2.02-4.143 4.85-9.797 8.1-15.846 3.25-6.051 6.91-12.486 10.59-18.195 3.69-5.724 7.35-10.66 10.6-13.752 6.58-6.267 13.82-10.532 20.16-12.392 6.39-1.876 11.57-1.237 14.44 1.788zM1943.65 362.862c-3.03 2.879-8.23 3.26-14.52 1.069-6.24-2.171-13.25-6.79-19.52-13.375-3.09-3.25-6.51-8.36-9.9-14.26-3.39-5.884-6.73-12.493-9.68-18.697a469.62 469.62 0 0 1-7.31-16.228c-.79-1.84-1.44-3.388-1.92-4.549a468.405 468.405 0 0 1 20.3 10.249c6.05 3.251 12.48 6.913 18.19 10.588 5.73 3.686 10.66 7.349 13.75 10.598 6.27 6.587 10.54 13.823 12.4 20.159 1.87 6.393 1.23 11.569-1.79 14.446zM1750.9 244.928c-2.88-3.025-3.26-8.228-1.07-14.52 2.17-6.236 6.79-13.251 13.38-19.518 3.25-3.092 8.36-6.507 14.26-9.904 5.88-3.389 12.49-6.727 18.69-9.674a469.365 469.365 0 0 1 20.78-9.229 461.96 461.96 0 0 1-10.25 20.295c-3.25 6.051-6.91 12.487-10.59 18.196-3.68 5.724-7.35 10.658-10.6 13.75-6.58 6.268-13.82 10.534-20.15 12.393-6.4 1.875-11.57 1.236-14.45-1.789zM1823.87 163.995a466.098 466.098 0 0 1-7.1-21.598c-1.98-6.577-3.94-13.717-5.38-20.354-1.44-6.653-2.34-12.733-2.23-17.217.23-9.09 2.33-17.221 5.49-23.017 3.2-5.846 7.31-9.055 11.48-8.952 4.18.103 8.13 3.513 11.03 9.51 2.87 5.945 4.57 14.171 4.34 23.26-.11 4.484-1.31 10.512-3.08 17.086-1.76 6.557-4.08 13.591-6.38 20.063a447.56 447.56 0 0 1-6.31 16.646 255.43 255.43 0 0 1-1.86 4.573zM1894.52 161.339c9.09.226 17.22 2.325 23.02 5.491 5.84 3.194 9.05 7.307 8.95 11.482-.1 4.174-3.51 8.124-9.51 11.024-5.94 2.874-14.17 4.569-23.26 4.343-4.48-.111-10.51-1.31-17.09-3.079-6.55-1.765-13.59-4.078-20.06-6.382a466.46 466.46 0 0 1-16.64-6.305c-1.86-.745-3.42-1.38-4.58-1.861a463.746 463.746 0 0 1 21.6-7.104c6.58-1.98 13.72-3.942 20.35-5.379 6.66-1.442 12.74-2.341 17.22-2.23z"/></g><g clip-path="url(#g)" filter="url(#h)" stroke="#AAED75" stroke-width="2"><path d="M1731.77 200.821c-1.05 10.339-4.16 19.43-8.28 25.769-4.15 6.388-9.16 9.736-13.98 9.245-4.82-.49-9.04-4.778-11.83-11.872-2.76-7.039-3.97-16.569-2.91-26.908.52-5.109 2.41-11.875 5-19.202 2.58-7.311 5.83-15.115 9.02-22.278 3.18-7.162 6.3-13.672 8.63-18.392 1.1-2.23 2.01-4.06 2.68-5.369.39 1.416.92 3.394 1.55 5.799 1.32 5.092 3.07 12.097 4.74 19.754 1.68 7.658 3.29 15.957 4.35 23.638 1.06 7.698 1.55 14.707 1.03 19.816zM1646.81 30.652c3.76-3.061 9.78-3.019 16.76.03 6.93 3.025 14.52 8.909 21.09 16.965 3.25 3.98 6.69 10.104 10.04 17.114 3.34 6.995 6.57 14.81 9.38 22.129a524.1 524.1 0 0 1 6.9 19.107c.8 2.353 1.44 4.297 1.9 5.693-1.28-.728-3.05-1.749-5.19-3.007a528.649 528.649 0 0 1-17.33-10.61c-6.6-4.228-13.6-8.958-19.78-13.642-6.19-4.695-11.5-9.303-14.74-13.284-6.57-8.053-10.8-16.677-12.37-24.074-1.58-7.455-.41-13.36 3.34-16.421zM1812.27 47.492c3.06 3.756 3.02 9.775-.03 16.759-3.03 6.93-8.91 14.524-16.97 21.09-3.98 3.245-10.1 6.689-17.11 10.04-7 3.343-14.81 6.565-22.13 9.376a533.354 533.354 0 0 1-24.8 8.801c.73-1.276 1.75-3.05 3.01-5.193a520.59 520.59 0 0 1 10.61-17.325c4.23-6.602 8.96-13.608 13.64-19.786 4.7-6.192 9.3-11.497 13.28-14.741 8.06-6.567 16.68-10.8 24.08-12.367 7.46-1.579 13.36-.408 16.42 3.346zM1661.23 256.669v.001c-3.75 3.061-9.77 3.017-16.75-.033-6.93-3.026-14.53-8.909-21.09-16.962-3.25-3.981-6.69-10.106-10.04-17.117-3.35-6.995-6.57-14.81-9.38-22.128a523.703 523.703 0 0 1-6.9-19.107c-.8-2.352-1.45-4.296-1.9-5.692 1.27.728 3.05 1.75 5.19 3.008a530.201 530.201 0 0 1 17.33 10.611c6.6 4.229 13.6 8.959 19.78 13.643 6.19 4.694 11.5 9.301 14.74 13.281 6.57 8.056 10.8 16.681 12.37 24.078 1.58 7.455.41 13.358-3.35 16.417zM1575.83 166.505c-1.41.387-3.39.92-5.79 1.546-5.1 1.325-12.1 3.07-19.76 4.748-7.66 1.678-15.96 3.287-23.64 4.343-7.69 1.059-14.7 1.553-19.81 1.033-10.34-1.052-19.43-4.158-25.77-8.28-6.39-4.155-9.74-9.157-9.25-13.978.49-4.82 4.78-9.046 11.88-11.828 7.04-2.76 16.57-3.97 26.9-2.918 5.11.52 11.88 2.416 19.21 5.004 7.31 2.582 15.11 5.83 22.27 9.017a524.693 524.693 0 0 1 23.76 11.313zM1578.45 85.848c1.06-10.339 4.16-19.43 8.28-25.769 4.16-6.388 9.16-9.736 13.98-9.245 4.82.49 9.05 4.778 11.83 11.872 2.76 7.04 3.97 16.57 2.92 26.908-.52 5.109-2.42 11.875-5.01 19.202-2.58 7.311-5.83 15.115-9.01 22.278a545.98 545.98 0 0 1-8.63 18.392c-1.1 2.23-2.02 4.06-2.69 5.369-.38-1.416-.91-3.394-1.54-5.799a525.727 525.727 0 0 1-4.75-19.754c-1.68-7.658-3.29-15.957-4.34-23.638-1.06-7.698-1.56-14.707-1.04-19.816zM1606.82 283.291c10.34 1.052 19.43 4.158 25.77 8.28 6.38 4.154 9.73 9.157 9.24 13.977-.49 4.821-4.78 9.046-11.87 11.828-7.04 2.761-16.57 3.971-26.91 2.919-5.11-.52-11.87-2.416-19.2-5.004-7.31-2.582-15.12-5.83-22.28-9.017a531.838 531.838 0 0 1-23.76-11.313 534.19 534.19 0 0 1 25.55-6.294c7.66-1.678 15.96-3.287 23.64-4.343 7.7-1.059 14.71-1.553 19.82-1.033zM1511.99 304.076c2.36-.801 4.3-1.444 5.7-1.9a498.91 498.91 0 0 1-3.01 5.192 519.474 519.474 0 0 1-10.61 17.324c-4.23 6.602-8.96 13.607-13.64 19.785-4.7 6.193-9.3 11.498-13.29 14.744-8.05 6.565-16.67 10.796-24.07 12.363-7.45 1.579-13.36.41-16.42-3.343-3.06-3.753-3.02-9.771.03-16.754 3.02-6.93 8.91-14.526 16.96-21.093 3.98-3.245 10.11-6.688 17.12-10.039 6.99-3.343 14.81-6.565 22.13-9.377a526.78 526.78 0 0 1 19.1-6.902zM1453.49 202.792c3.75-3.061 9.77-3.017 16.76.032 6.93 3.026 14.52 8.909 21.09 16.962 3.24 3.981 6.69 10.107 10.04 17.118 3.34 6.995 6.56 14.809 9.37 22.127a524.383 524.383 0 0 1 6.9 19.107c.81 2.352 1.45 4.296 1.9 5.692-1.27-.728-3.05-1.75-5.19-3.008a527.608 527.608 0 0 1-17.32-10.611c-6.61-4.229-13.61-8.959-19.79-13.643-6.19-4.694-11.5-9.301-14.74-13.281-6.57-8.056-10.8-16.681-12.37-24.078-1.58-7.455-.41-13.358 3.35-16.417zM1662.67 353.821v.001c3.06 3.755 3.01 9.774-.04 16.758-3.02 6.93-8.9 14.524-16.96 21.089-3.98 3.246-10.1 6.69-17.11 10.041-7 3.343-14.81 6.565-22.13 9.376a533.354 533.354 0 0 1-24.8 8.801c.73-1.275 1.75-3.05 3.01-5.193a520.419 520.419 0 0 1 10.61-17.325c4.23-6.602 8.96-13.608 13.64-19.785 4.69-6.192 9.3-11.498 13.28-14.742 8.06-6.567 16.68-10.8 24.08-12.367 7.45-1.579 13.36-.408 16.42 3.346zM1569.82 444.594c1.1-2.23 2.02-4.059 2.68-5.369.39 1.417.92 3.394 1.55 5.799 1.32 5.092 3.07 12.097 4.75 19.754 1.67 7.658 3.28 15.957 4.34 23.638 1.06 7.698 1.55 14.708 1.03 19.816-1.05 10.339-4.16 19.43-8.28 25.769-4.15 6.388-9.16 9.736-13.98 9.245-4.82-.49-9.04-4.778-11.82-11.872-2.76-7.039-3.97-16.569-2.92-26.908.52-5.109 2.41-11.875 5-19.202 2.58-7.311 5.83-15.115 9.02-22.278a545.98 545.98 0 0 1 8.63-18.392zM1491.84 436.605c-10.33-1.052-19.42-4.157-25.76-8.28-6.39-4.154-9.74-9.157-9.25-13.977.49-4.82 4.78-9.046 11.87-11.828 7.04-2.761 16.57-3.971 26.91-2.918 5.11.52 11.88 2.415 19.2 5.004 7.31 2.582 15.12 5.83 22.28 9.017a532.054 532.054 0 0 1 23.76 11.313c-1.41.387-3.39.919-5.8 1.545a527.316 527.316 0 0 1-19.75 4.748c-7.66 1.678-15.96 3.287-23.64 4.344-7.7 1.059-14.71 1.552-19.82 1.032zM1689.28 408.242c1.06-10.338 4.16-19.429 8.28-25.768 4.16-6.388 9.16-9.736 13.98-9.246 4.82.491 9.05 4.778 11.83 11.872 2.76 7.04 3.97 16.57 2.92 26.909-.52 5.109-2.42 11.875-5.01 19.202-2.58 7.31-5.83 15.114-9.01 22.278a525.657 525.657 0 0 1-8.64 18.392 336.52 336.52 0 0 1-2.68 5.369c-.38-1.417-.92-3.394-1.54-5.799a526.204 526.204 0 0 1-4.75-19.754c-1.68-7.659-3.29-15.957-4.34-23.638-1.06-7.698-1.56-14.708-1.04-19.817zM1708.17 497.372c1.28.728 3.05 1.75 5.19 3.008a527.951 527.951 0 0 1 17.33 10.609c6.6 4.229 13.61 8.959 19.78 13.643 6.2 4.695 11.5 9.302 14.75 13.283 6.56 8.053 10.79 16.677 12.36 24.075 1.58 7.454.41 13.359-3.34 16.421-3.76 3.061-9.77 3.018-16.76-.03-6.93-3.026-14.52-8.909-21.09-16.965-3.24-3.979-6.69-10.104-10.04-17.115-3.34-6.995-6.56-14.809-9.38-22.128-2.81-7.317-5.2-14.126-6.9-19.108-.8-2.352-1.44-4.297-1.9-5.693zM1608.79 561.571c-3.06-3.755-3.02-9.774.03-16.758 3.03-6.93 8.91-14.524 16.96-21.089 3.98-3.246 10.11-6.69 17.12-10.041 7-3.343 14.81-6.565 22.13-9.376a526.78 526.78 0 0 1 24.8-8.801c-.73 1.275-1.75 3.05-3.01 5.193a520.419 520.419 0 0 1-10.61 17.325c-4.23 6.602-8.96 13.607-13.64 19.785-4.7 6.192-9.31 11.497-13.29 14.742-8.05 6.567-16.68 10.799-24.07 12.366-7.46 1.58-13.36.409-16.42-3.346zM1759.82 352.389v-.001c3.75-3.061 9.77-3.017 16.76.033 6.93 3.026 14.52 8.909 21.09 16.962 3.24 3.981 6.69 10.106 10.04 17.117 3.34 6.995 6.56 14.81 9.37 22.128a523.703 523.703 0 0 1 6.9 19.107c.81 2.352 1.45 4.296 1.9 5.692a531.117 531.117 0 0 1-22.51-13.619c-6.61-4.229-13.61-8.959-19.79-13.643-6.19-4.694-11.5-9.301-14.74-13.281-6.57-8.056-10.8-16.681-12.37-24.078-1.58-7.455-.41-13.359 3.35-16.417zM1845.22 442.554a530.429 530.429 0 0 1 25.56-6.294c7.65-1.678 15.95-3.287 23.63-4.344 7.7-1.059 14.71-1.552 19.82-1.032 10.34 1.052 19.43 4.157 25.77 8.28 6.39 4.154 9.73 9.157 9.24 13.977-.49 4.821-4.77 9.046-11.87 11.828-7.04 2.761-16.57 3.971-26.91 2.919-5.11-.52-11.87-2.416-19.2-5.004-7.31-2.583-15.11-5.831-22.28-9.018a532.054 532.054 0 0 1-23.76-11.312zM1842.6 523.215c-1.05 10.338-4.16 19.429-8.28 25.768-4.15 6.388-9.15 9.736-13.98 9.246-4.82-.491-9.04-4.778-11.82-11.872-2.76-7.04-3.97-16.57-2.92-26.909.52-5.108 2.41-11.875 5-19.202 2.58-7.31 5.83-15.114 9.02-22.278a547.85 547.85 0 0 1 8.63-18.392c1.1-2.229 2.02-4.059 2.68-5.369.39 1.417.92 3.394 1.55 5.799 1.32 5.092 3.07 12.098 4.75 19.754 1.67 7.659 3.28 15.957 4.34 23.638 1.06 7.698 1.55 14.708 1.03 19.817zM1814.24 325.772c-10.34-1.052-19.43-4.157-25.77-8.28-6.39-4.154-9.73-9.157-9.24-13.977.49-4.82 4.77-9.046 11.87-11.828 7.04-2.761 16.57-3.971 26.91-2.918 5.1.52 11.87 2.415 19.2 5.004 7.31 2.582 15.11 5.83 22.28 9.017a532.054 532.054 0 0 1 23.76 11.313 528.433 528.433 0 0 1-25.56 6.293c-7.65 1.678-15.95 3.287-23.63 4.344-7.7 1.059-14.71 1.553-19.82 1.032zM1984.41 240.818c3.06 3.753 3.02 9.771-.03 16.754-3.03 6.93-8.91 14.526-16.97 21.093-3.98 3.245-10.1 6.688-17.11 10.039-7 3.343-14.81 6.565-22.13 9.377a533.354 533.354 0 0 1-19.11 6.902c-2.35.801-4.29 1.444-5.69 1.9.73-1.275 1.75-3.05 3.01-5.193a521.543 521.543 0 0 1 10.61-17.324c4.23-6.601 8.96-13.607 13.64-19.784 4.69-6.193 9.3-11.498 13.28-14.744 8.06-6.565 16.68-10.797 24.08-12.365 7.45-1.58 13.36-.41 16.42 3.345zM1967.57 406.271c-3.76 3.061-9.78 3.017-16.76-.032-6.93-3.026-14.52-8.909-21.09-16.962-3.24-3.981-6.69-10.107-10.04-17.118-3.34-6.995-6.56-14.809-9.38-22.128-2.81-7.316-5.2-14.125-6.9-19.106-.8-2.352-1.44-4.296-1.9-5.692 1.28.728 3.05 1.75 5.2 3.008a538.463 538.463 0 0 1 17.32 10.611c6.6 4.228 13.61 8.959 19.79 13.642 6.19 4.695 11.49 9.302 14.74 13.282 6.57 8.056 10.8 16.681 12.36 24.078 1.58 7.455.41 13.358-3.34 16.417zM1758.39 255.237c-3.07-3.755-3.02-9.774.03-16.758 3.02-6.93 8.91-14.524 16.96-21.089 3.98-3.246 10.11-6.69 17.12-10.041 6.99-3.343 14.81-6.565 22.13-9.376a526.78 526.78 0 0 1 24.79-8.801c-.72 1.275-1.75 3.05-3 5.193a556.693 556.693 0 0 1-10.61 17.325c-4.23 6.602-8.96 13.607-13.65 19.785-4.69 6.192-9.3 11.497-13.28 14.742-8.05 6.567-16.68 10.799-24.08 12.366-7.45 1.58-13.36.409-16.41-3.346zM1848.55 169.838c-.39-1.417-.92-3.394-1.55-5.8-1.32-5.091-3.07-12.097-4.74-19.753-1.68-7.659-3.29-15.957-4.35-23.638-1.06-7.698-1.55-14.708-1.03-19.817 1.05-10.338 4.16-19.43 8.28-25.769 4.16-6.387 9.16-9.735 13.98-9.245 4.82.49 9.04 4.778 11.83 11.872 2.76 7.04 3.97 16.57 2.91 26.908-.52 5.109-2.41 11.876-5 19.203-2.58 7.31-5.83 15.114-9.02 22.278a510.734 510.734 0 0 1-8.63 18.392 340.866 340.866 0 0 1-2.68 5.369zM1929.21 172.458c10.34 1.052 19.43 4.158 25.77 8.28 6.39 4.154 9.74 9.157 9.25 13.977-.49 4.821-4.78 9.046-11.88 11.828-7.04 2.761-16.57 3.971-26.9 2.919-5.11-.52-11.88-2.416-19.21-5.004-7.31-2.582-15.11-5.83-22.27-9.017a524.693 524.693 0 0 1-18.4-8.631 498.684 498.684 0 0 1-5.37-2.682 535.327 535.327 0 0 1 25.56-6.294c7.66-1.678 15.95-3.287 23.64-4.343 7.69-1.059 14.7-1.553 19.81-1.033z"/></g><g opacity=".5" clip-path="url(#i)" filter="url(#j)" stroke="#AAED75" stroke-width="4"><path d="M1618.34 146.271c6.34 10.526 9.83 21.295 10.42 30.137.6 8.958-1.77 15.326-6.32 18.07-4.56 2.743-11.3 1.862-18.94-2.858-7.53-4.658-15.42-12.779-21.76-23.305-3.11-5.159-6.12-12.893-8.88-21.719-2.76-8.791-5.24-18.535-7.32-27.636a637.67 637.67 0 0 1-5.83-28.641c1.12.883 2.46 1.933 3.95 3.125a636.13 636.13 0 0 1 18.64 15.424c7.07 6.096 14.52 12.844 21 19.393 6.51 6.575 11.94 12.851 15.04 18.01zM1417.07 44.52v-.001c1.28-5.158 6.67-9.3 15.4-11.364 8.63-2.036 19.95-1.871 31.88 1.09 5.84 1.45 13.44 4.791 21.63 9.074 8.17 4.267 16.81 9.404 24.72 14.366 7.9 4.96 15.05 9.734 20.22 13.27 1.58 1.078 2.98 2.042 4.15 2.86a634.381 634.381 0 0 1-29.08 2.857c-9.31.688-19.35 1.186-28.57 1.138-9.25-.048-17.52-.648-23.37-2.1-11.92-2.96-22-8.106-28.68-13.94-6.75-5.91-9.58-12.09-8.3-17.25zM1585.94-57.18c5.16 1.281 9.3 6.669 11.36 15.407 2.04 8.625 1.87 19.944-1.09 31.868-1.45 5.846-4.79 13.442-9.07 21.64-4.27 8.167-9.41 16.81-14.37 24.716a622.39 622.39 0 0 1-13.27 20.223c-1.08 1.58-2.04 2.974-2.86 4.15-.17-1.422-.37-3.106-.58-5.007a625.66 625.66 0 0 1-2.27-24.082c-.69-9.31-1.19-19.352-1.14-28.565.05-9.25.65-17.525 2.1-23.37 2.96-11.927 8.11-22.01 13.94-28.68 5.91-6.76 12.09-9.582 17.25-8.3zM1590.93 249.379v.001c-1.28 5.16-6.67 9.302-15.41 11.365-8.62 2.036-19.94 1.87-31.87-1.09-5.84-1.452-13.44-4.793-21.64-9.076-8.16-4.266-16.81-9.403-24.71-14.365-7.91-4.961-15.05-9.734-20.23-13.269a697.792 697.792 0 0 1-4.15-2.86 635.885 635.885 0 0 1 29.09-2.856c9.31-.689 19.35-1.187 28.57-1.139 9.25.048 17.52.648 23.37 2.099 11.92 2.961 22.01 8.109 28.68 13.942 6.76 5.911 9.58 12.091 8.3 17.248zM1443.83 225.83a629.607 629.607 0 0 1-18.54 22.589c-6.1 7.07-12.85 14.524-19.4 21.005-6.57 6.506-12.85 11.935-18.01 15.042-10.52 6.339-21.29 9.829-30.13 10.421-8.96.6-15.33-1.773-18.07-6.328-2.75-4.556-1.87-11.294 2.85-18.932 4.66-7.538 12.78-15.424 23.31-21.763 5.16-3.108 12.89-6.116 21.72-8.885 8.79-2.757 18.53-5.237 27.63-7.318a634.01 634.01 0 0 1 23.69-4.919c1.88-.353 3.55-.659 4.95-.912zM1391.26 145.45c-6.34-10.526-9.83-21.295-10.42-30.137-.6-8.958 1.78-15.326 6.33-18.07 4.56-2.743 11.29-1.862 18.93 2.858 7.54 4.659 15.43 12.78 21.77 23.306 3.1 5.159 6.11 12.893 8.88 21.718 2.76 8.792 5.24 18.536 7.32 27.636a637.967 637.967 0 0 1 5.83 28.641c-1.13-.883-2.46-1.932-3.96-3.124a639.297 639.297 0 0 1-18.63-15.424c-7.07-6.096-14.52-12.845-21-19.394-6.51-6.574-11.94-12.851-15.05-18.01zM1559.27 314.58c10.53-6.339 21.3-9.829 30.14-10.421 8.96-.6 15.32 1.773 18.07 6.328 2.74 4.556 1.86 11.294-2.86 18.932-4.66 7.538-12.78 15.424-23.31 21.764-5.15 3.107-12.89 6.116-21.71 8.884-8.8 2.757-18.54 5.237-27.64 7.319a637.976 637.976 0 0 1-28.64 5.83 566.97 566.97 0 0 1 3.12-3.955c3.91-4.901 9.33-11.567 15.43-18.634 6.09-7.07 12.84-14.523 19.39-21.005 6.58-6.506 12.85-11.935 18.01-15.042zM1483.95 401.995c1.08-1.58 2.04-2.975 2.86-4.151.17 1.421.37 3.105.59 5.005.7 6.225 1.58 14.776 2.27 24.081.69 9.309 1.19 19.351 1.14 28.564-.05 9.249-.65 17.527-2.1 23.373-2.96 11.924-8.11 22.004-13.94 28.675-5.91 6.759-12.09 9.584-17.25 8.305s-9.3-6.664-11.37-15.402c-2.03-8.625-1.87-19.944 1.09-31.872 1.45-5.844 4.79-13.44 9.08-21.637 4.26-8.167 9.4-16.81 14.36-24.716 4.96-7.904 9.74-15.052 13.27-20.225zM1355.82 346.985c1.28-5.16 6.67-9.302 15.41-11.365 8.62-2.036 19.94-1.87 31.86 1.09 5.85 1.451 13.45 4.793 21.65 9.076 8.16 4.266 16.8 9.403 24.71 14.365 7.9 4.96 15.05 9.734 20.22 13.269 1.58 1.079 2.98 2.042 4.15 2.859a632.343 632.343 0 0 1-29.09 2.857c-9.3.688-19.35 1.187-28.56 1.139-9.25-.049-17.53-.648-23.37-2.099-11.93-2.961-22.01-8.109-28.68-13.943-6.76-5.91-9.58-12.09-8.3-17.248zM1662.38 341.991c5.16 1.281 9.3 6.669 11.36 15.407 2.04 8.625 1.87 19.944-1.09 31.867-1.45 5.847-4.79 13.443-9.07 21.641-4.27 8.167-9.41 16.809-14.37 24.716a622.482 622.482 0 0 1-13.27 20.223 553.29 553.29 0 0 1-2.86 4.149c-.17-1.421-.37-3.105-.59-5.006-.7-6.226-1.58-14.777-2.26-24.082-.69-9.31-1.19-19.352-1.14-28.565.04-9.249.64-17.525 2.1-23.37 2.96-11.927 8.1-22.01 13.94-28.681 5.91-6.758 12.09-9.581 17.25-8.299zM1639.74 494.046c-.35-1.88-.66-3.548-.91-4.957 1.13.882 2.46 1.932 3.96 3.124 4.9 3.904 11.56 9.331 18.63 15.424 7.07 6.096 14.52 12.845 21 19.394 6.51 6.574 11.94 12.851 15.05 18.01 6.34 10.526 9.82 21.295 10.42 30.137.6 8.958-1.78 15.326-6.33 18.069-4.56 2.744-11.29 1.863-18.93-2.857-7.54-4.659-15.43-12.78-21.77-23.306-3.1-5.159-6.11-12.893-8.88-21.718-2.76-8.792-5.24-18.536-7.32-27.636a637.967 637.967 0 0 1-4.92-23.684zM1558.45 541.66c-10.53 6.339-21.3 9.829-30.14 10.421-8.96.601-15.32-1.772-18.07-6.328-2.74-4.555-1.86-11.294 2.86-18.931 4.66-7.539 12.78-15.425 23.31-21.764 5.16-3.107 12.89-6.116 21.71-8.884 8.8-2.758 18.54-5.237 27.64-7.319a635.92 635.92 0 0 1 28.64-5.83c-.88 1.127-1.93 2.458-3.12 3.955-3.91 4.9-9.33 11.567-15.43 18.634-6.09 7.07-12.84 14.523-19.39 21.004-6.57 6.506-12.85 11.935-18.01 15.042zM1727.58 373.656c-6.34-10.526-9.83-21.295-10.43-30.136-.6-8.959 1.78-15.327 6.33-18.07 4.56-2.744 11.3-1.863 18.93 2.857 7.54 4.659 15.43 12.78 21.77 23.306 3.1 5.159 6.11 12.893 8.88 21.718 2.76 8.792 5.24 18.536 7.32 27.636a637.967 637.967 0 0 1 5.83 28.641c-1.13-.882-2.46-1.932-3.95-3.124a638.002 638.002 0 0 1-18.64-15.424c-7.07-6.096-14.52-12.845-21-19.394-6.51-6.574-11.94-12.851-15.04-18.01zM1810.84 446.114a633.715 633.715 0 0 1 29.09-2.858c9.31-.688 19.35-1.186 28.56-1.138 9.25.048 17.53.648 23.38 2.099 11.92 2.96 22 8.108 28.67 13.941 6.76 5.911 9.59 12.092 8.31 17.251-1.28 5.158-6.67 9.3-15.41 11.364-8.62 2.036-19.94 1.871-31.87-1.09-5.84-1.451-13.44-4.792-21.63-9.075-8.17-4.266-16.81-9.403-24.72-14.365a647.653 647.653 0 0 1-20.23-13.269c-1.58-1.08-2.97-2.043-4.15-2.86zM1759.99 577.104h-.01c-5.16-1.281-9.3-6.669-11.36-15.408-2.04-8.624-1.87-19.943 1.09-31.867 1.45-5.846 4.79-13.443 9.08-21.64 4.26-8.167 9.4-16.81 14.36-24.716 4.96-7.903 9.73-15.05 13.27-20.223a553.29 553.29 0 0 1 2.86-4.149c.17 1.421.37 3.105.59 5.006.7 6.225 1.58 14.777 2.27 24.082.68 9.31 1.18 19.352 1.13 28.565-.04 9.249-.64 17.525-2.09 23.369-2.97 11.928-8.11 22.011-13.95 28.681-5.91 6.759-12.09 9.582-17.24 8.3zM1754.99 270.543c1.28-5.161 6.67-9.303 15.41-11.365 8.62-2.036 19.94-1.87 31.86 1.09 5.85 1.451 13.45 4.792 21.64 9.075 8.17 4.267 16.81 9.403 24.72 14.366 7.9 4.96 15.05 9.734 20.22 13.268 1.58 1.079 2.98 2.043 4.15 2.86-1.42.173-3.1.372-5.01.587-6.22.705-14.77 1.581-24.08 2.27-9.31.688-19.35 1.186-28.56 1.138-9.25-.048-17.53-.647-23.37-2.098-11.93-2.961-22.01-8.109-28.68-13.943-6.76-5.91-9.58-12.09-8.3-17.248zM1902.09 294.088a630.914 630.914 0 0 1 18.54-22.589c6.1-7.07 12.85-14.523 19.4-21.005 6.57-6.506 12.85-11.934 18.01-15.042 10.52-6.339 21.29-9.828 30.13-10.421 8.96-.6 15.33 1.773 18.07 6.329 2.75 4.555 1.87 11.293-2.85 18.931-4.66 7.538-12.78 15.425-23.31 21.764-5.16 3.107-12.89 6.116-21.72 8.884-8.79 2.758-18.53 5.237-27.63 7.319a633.741 633.741 0 0 1-23.69 4.918c-1.88.354-3.55.659-4.95.912zM1954.66 374.474c6.34 10.527 9.83 21.295 10.42 30.137.6 8.958-1.77 15.326-6.33 18.07-4.55 2.743-11.29 1.863-18.93-2.857-7.54-4.659-15.42-12.78-21.76-23.306-3.11-5.159-6.12-12.893-8.89-21.719-2.75-8.791-5.23-18.535-7.32-27.635a615.447 615.447 0 0 1-4.91-23.685c-.36-1.88-.66-3.548-.92-4.957a631.7 631.7 0 0 1 3.96 3.125c4.9 3.904 11.57 9.33 18.63 15.424 7.07 6.096 14.53 12.844 21.01 19.393 6.5 6.575 11.93 12.851 15.04 18.01zM1786.65 205.343c-10.52 6.339-21.29 9.829-30.13 10.421-8.96.6-15.33-1.773-18.07-6.328-2.75-4.556-1.87-11.294 2.85-18.932 4.66-7.538 12.78-15.424 23.31-21.764 5.16-3.107 12.89-6.115 21.72-8.884 8.79-2.757 18.53-5.237 27.63-7.318a634.01 634.01 0 0 1 23.69-4.919c1.88-.353 3.55-.659 4.95-.912a630.914 630.914 0 0 1-18.54 22.589c-6.1 7.07-12.85 14.524-19.4 21.005-6.57 6.506-12.85 11.935-18.01 15.042zM1888.4 4.071c5.16 1.279 9.3 6.665 11.37 15.403 2.03 8.624 1.87 19.944-1.09 31.872-1.45 5.844-4.79 13.44-9.08 21.637-4.26 8.166-9.4 16.81-14.36 24.716-4.96 7.903-9.74 15.052-13.27 20.225-1.08 1.58-2.04 2.975-2.86 4.15-.17-1.421-.37-3.104-.59-5.005-.7-6.225-1.58-14.775-2.27-24.08-.69-9.31-1.18-19.351-1.14-28.565.05-9.249.65-17.526 2.1-23.373 2.96-11.923 8.11-22.005 13.94-28.676 5.91-6.76 12.09-9.585 17.25-8.304zM1990.1 172.939c-1.28 5.161-6.67 9.302-15.4 11.365-8.63 2.036-19.95 1.87-31.87-1.09-5.85-1.451-13.44-4.792-21.64-9.075-8.17-4.267-16.81-9.403-24.72-14.366-7.9-4.96-15.05-9.734-20.22-13.268a497.688 497.688 0 0 1-4.15-2.86c1.42-.173 3.1-.372 5.01-.587 6.22-.705 14.77-1.581 24.08-2.27 9.31-.688 19.35-1.186 28.56-1.138 9.25.048 17.53.647 23.37 2.098 11.93 2.961 22.01 8.109 28.68 13.943 6.76 5.91 9.59 12.09 8.3 17.248zM1683.54 177.931c-5.16-1.281-9.3-6.669-11.37-15.408-2.03-8.624-1.87-19.943 1.09-31.867 1.46-5.846 4.8-13.442 9.08-21.64 4.27-8.167 9.4-16.81 14.36-24.716a657.76 657.76 0 0 1 13.27-20.223c1.08-1.58 2.05-2.974 2.86-4.15.18 1.422.38 3.106.59 5.007.7 6.226 1.58 14.777 2.27 24.082.69 9.31 1.19 19.352 1.14 28.565-.05 9.249-.65 17.525-2.1 23.369-2.96 11.928-8.11 22.011-13.94 28.681-5.91 6.759-12.09 9.582-17.25 8.3zM1707.09 30.838c-1.13-.883-2.46-1.933-3.96-3.125-4.9-3.904-11.56-9.33-18.63-15.424-7.07-6.096-14.52-12.844-21.01-19.393-6.5-6.575-11.93-12.851-15.04-18.01-6.34-10.527-9.83-21.295-10.42-30.137-.6-8.958 1.77-15.326 6.33-18.07 4.55-2.743 11.29-1.862 18.93 2.858 7.54 4.658 15.43 12.78 21.76 23.305 3.11 5.16 6.12 12.893 8.89 21.719 2.76 8.791 5.24 18.535 7.32 27.636a637.886 637.886 0 0 1 4.92 23.684c.35 1.88.65 3.548.91 4.957zM1787.47-21.736c10.53-6.34 21.3-9.829 30.14-10.421 8.96-.6 15.33 1.773 18.07 6.328 2.74 4.555 1.86 11.294-2.86 18.931-4.66 7.539-12.78 15.425-23.3 21.764-5.16 3.107-12.9 6.116-21.72 8.884-8.79 2.758-18.54 5.237-27.64 7.32a629.048 629.048 0 0 1-28.64 5.83c.88-1.128 1.93-2.459 3.13-3.955 3.9-4.901 9.33-11.568 15.42-18.635 6.1-7.07 12.84-14.523 19.39-21.004 6.58-6.506 12.85-11.935 18.01-15.042z"/></g><g opacity=".5" clip-path="url(#k)" filter="url(#l)" stroke="#AAED75" stroke-width="4"><path d="M1628.64 129.248c5.53 12.284 7.92 24.468 7.41 34.186-.52 9.835-3.94 16.536-9.35 18.965-5.4 2.429-12.69.54-20.39-5.6-7.6-6.068-15.13-15.945-20.65-28.229-2.71-6.032-4.97-14.844-6.83-24.796-1.85-9.917-3.27-20.831-4.34-30.992a688.928 688.928 0 0 1-2.25-26.378c-.16-2.312-.28-4.335-.38-5.998 1.19 1.176 2.62 2.61 4.24 4.26a694.254 694.254 0 0 1 18.24 19.194c6.88 7.547 14.1 15.856 20.29 23.821 6.21 7.994 11.3 15.536 14.01 21.567zM1422.94-7.555v-.001c2.1-5.537 8.58-9.35 18.37-10.454 9.67-1.09 21.97.574 34.57 5.356 6.18 2.348 14.01 6.98 22.36 12.704 8.32 5.705 17.04 12.417 24.98 18.842a694.707 694.707 0 0 1 20.25 17.06c1.74 1.526 3.26 2.87 4.5 3.978a692.091 692.091 0 0 1-32.47-.693c-10.21-.468-21.19-1.238-31.19-2.495-10.05-1.26-18.98-2.994-25.16-5.343-12.59-4.78-22.9-11.703-29.41-18.937-6.59-7.321-8.91-14.479-6.8-20.017zM1619.9-96.093c5.54 2.103 9.35 8.59 10.46 18.376 1.09 9.67-.58 21.975-5.36 34.563-2.35 6.183-6.98 14.015-12.7 22.364-5.71 8.32-12.42 17.042-18.85 24.985-6.42 7.94-12.54 15.083-17.05 20.242-1.53 1.743-2.87 3.26-3.98 4.503-.01-1.666 0-3.692.01-6.01.05-6.856.21-16.262.68-26.464.47-10.206 1.24-21.185 2.5-31.194 1.26-10.044 2.99-18.975 5.34-25.156 4.78-12.593 11.7-22.9 18.94-29.41 7.32-6.586 14.48-8.904 20.01-6.8zM1585.4 237.821c-2.1 5.539-8.59 9.352-18.37 10.454-9.67 1.09-21.98-.575-34.57-5.356-6.18-2.348-14.01-6.98-22.36-12.705-8.32-5.704-17.04-12.416-24.98-18.841a694.682 694.682 0 0 1-20.25-17.059 664.315 664.315 0 0 1-4.5-3.978c1.67-.003 3.69 0 6.01.016 6.86.047 16.26.211 26.47.679 10.2.467 21.18 1.238 31.19 2.494 10.04 1.26 18.97 2.994 25.15 5.341 12.6 4.783 22.91 11.707 29.41 18.941 6.59 7.322 8.91 14.478 6.8 20.014zM1429 192.751c-1.18 1.18-2.61 2.611-4.26 4.239-4.89 4.815-11.65 11.35-19.2 18.234-7.55 6.886-15.85 14.105-23.82 20.294-7.99 6.212-15.54 11.301-21.57 14.012-12.28 5.522-24.46 7.915-34.18 7.402-9.84-.519-16.54-3.94-18.97-9.344-2.43-5.405-.54-12.688 5.6-20.387 6.07-7.609 15.95-15.132 28.23-20.654 6.03-2.711 14.85-4.973 24.8-6.829 9.91-1.849 20.83-3.27 30.99-4.344a694.35 694.35 0 0 1 32.38-2.623zM1381.73 98.861c-5.52-12.284-7.92-24.467-7.4-34.185.52-9.835 3.94-16.536 9.34-18.965 5.41-2.43 12.69-.54 20.39 5.6 7.61 6.067 15.13 15.945 20.65 28.229 2.71 6.031 4.97 14.844 6.83 24.796 1.85 9.917 3.27 20.831 4.34 30.991 1.08 10.157 1.8 19.536 2.26 26.378.15 2.313.27 4.335.37 5.998a693.405 693.405 0 0 1-22.48-23.453c-6.88-7.548-14.1-15.856-20.29-23.822-6.21-7.994-11.3-15.535-14.01-21.567zM1542.25 304.278c12.28-5.522 24.47-7.915 34.18-7.402 9.84.519 16.54 3.94 18.97 9.345 2.43 5.404.54 12.687-5.6 20.387-6.07 7.608-15.95 15.132-28.23 20.654-6.03 2.711-14.84 4.973-24.8 6.828-9.91 1.849-20.83 3.271-30.99 4.344a686.82 686.82 0 0 1-26.38 2.251c-2.31.154-4.33.277-5.99.373 1.17-1.181 2.61-2.612 4.26-4.239a693.463 693.463 0 0 1 19.19-18.234c7.55-6.886 15.86-14.105 23.82-20.295 8-6.211 15.54-11.301 21.57-14.012zM1448.95 389.451c1.53-1.744 2.87-3.261 3.98-4.505 0 1.666 0 3.691-.02 6.009-.04 6.856-.21 16.261-.68 26.463-.46 10.205-1.23 21.184-2.49 31.193-1.26 10.045-2.99 18.976-5.34 25.159-4.78 12.589-11.71 22.895-18.94 29.403-7.32 6.587-14.48 8.907-20.02 6.806-5.53-2.1-9.35-8.584-10.45-18.371-1.09-9.67.57-21.975 5.35-34.568 2.35-6.181 6.98-14.011 12.71-22.36 5.7-8.319 12.41-17.042 18.84-24.985a681.276 681.276 0 0 1 17.06-20.244zM1316.91 313.021v-.001c2.1-5.538 8.59-9.352 18.37-10.454 9.67-1.09 21.98.575 34.57 5.356 6.18 2.348 14.01 6.98 22.36 12.705 8.32 5.705 17.04 12.417 24.99 18.842 7.94 6.422 15.08 12.543 20.24 17.059 1.74 1.526 3.26 2.869 4.5 3.977a692.584 692.584 0 0 1-32.47-.694c-10.21-.468-21.19-1.238-31.2-2.494-10.04-1.261-18.97-2.995-25.15-5.342-12.6-4.782-22.9-11.707-29.41-18.941-6.59-7.322-8.91-14.478-6.8-20.013zM1650.82 347.512c5.54 2.104 9.35 8.59 10.45 18.377 1.09 9.67-.57 21.974-5.35 34.563-2.35 6.183-6.98 14.014-12.71 22.363-5.7 8.32-12.41 17.042-18.84 24.985a682.166 682.166 0 0 1-17.06 20.242c-1.52 1.744-2.87 3.26-3.98 4.504 0-1.666 0-3.692.02-6.01.05-6.857.21-16.263.68-26.465.47-10.206 1.24-21.185 2.49-31.194 1.26-10.044 3-18.975 5.34-25.156 4.79-12.592 11.71-22.9 18.95-29.409 7.32-6.587 14.47-8.904 20.01-6.8zM1606.12 509.926c-.15-2.313-.27-4.335-.37-5.998 1.18 1.175 2.61 2.61 4.24 4.26 4.81 4.882 11.35 11.649 18.23 19.193 6.89 7.548 14.11 15.856 20.3 23.822 6.21 7.994 11.3 15.536 14.01 21.567 5.52 12.284 7.92 24.468 7.4 34.186-.52 9.834-3.94 16.535-9.34 18.965-5.41 2.429-12.69.539-20.39-5.601-7.61-6.067-15.13-15.945-20.65-28.229-2.71-6.031-4.98-14.844-6.83-24.796-1.85-9.917-3.27-20.831-4.35-30.991-1.07-10.156-1.79-19.536-2.25-26.378zM1511.86 551.194c-12.28 5.522-24.47 7.915-34.18 7.402-9.84-.519-16.54-3.94-18.97-9.344-2.43-5.405-.54-12.688 5.6-20.387 6.07-7.609 15.95-15.132 28.23-20.654 6.03-2.711 14.84-4.973 24.8-6.829 9.91-1.849 20.83-3.27 30.99-4.344a690.903 690.903 0 0 1 32.37-2.623c-1.17 1.18-2.61 2.611-4.26 4.239a696.483 696.483 0 0 1-19.19 18.234c-7.55 6.886-15.86 14.105-23.82 20.294-8 6.212-15.54 11.301-21.57 14.012zM1717.27 390.676c-5.52-12.284-7.91-24.468-7.4-34.186.52-9.834 3.94-16.536 9.35-18.965 5.4-2.429 12.68-.54 20.38 5.6 7.61 6.068 15.13 15.945 20.66 28.229 2.71 6.032 4.97 14.844 6.82 24.796 1.85 9.917 3.28 20.832 4.35 30.992a688.876 688.876 0 0 1 2.62 32.376c-1.18-1.176-2.61-2.61-4.24-4.26-4.81-4.882-11.35-11.649-18.23-19.194-6.89-7.547-14.11-15.855-20.3-23.821-6.21-7.994-11.3-15.536-14.01-21.567zM1797.95 479.995a691.01 691.01 0 0 1 32.47.694c10.2.467 21.18 1.237 31.19 2.494 10.05 1.26 18.98 2.994 25.16 5.343 12.59 4.78 22.9 11.704 29.4 18.938 6.59 7.322 8.91 14.48 6.81 20.017-2.1 5.537-8.58 9.351-18.37 10.454-9.67 1.09-21.98-.574-34.57-5.356-6.18-2.348-14.01-6.979-22.36-12.704-8.32-5.705-17.04-12.417-24.98-18.842-7.95-6.422-15.09-12.543-20.25-17.06a637.751 637.751 0 0 1-4.5-3.978zM1726.02 616.015c-5.54-2.103-9.35-8.589-10.45-18.376-1.09-9.671.57-21.975 5.35-34.563 2.35-6.183 6.98-14.015 12.71-22.364 5.7-8.319 12.41-17.042 18.84-24.985a682.166 682.166 0 0 1 17.06-20.242c1.52-1.743 2.87-3.26 3.98-4.503 0 1.666 0 3.692-.02 6.009-.05 6.857-.21 16.264-.68 26.465-.47 10.206-1.24 21.185-2.49 31.194-1.26 10.045-3 18.975-5.34 25.156-4.79 12.593-11.71 22.901-18.95 29.409-7.32 6.587-14.47 8.905-20.01 6.8zM1760.51 282.098v-.001c2.1-5.538 8.59-9.351 18.38-10.454 9.67-1.089 21.97.575 34.56 5.356 6.18 2.348 14.01 6.98 22.36 12.705 8.32 5.705 17.05 12.417 24.99 18.842 7.94 6.422 15.08 12.543 20.24 17.059 1.74 1.526 3.26 2.869 4.5 3.977a693.078 693.078 0 0 1-32.47-.694c-10.21-.468-21.19-1.238-31.19-2.494-10.05-1.261-18.98-2.994-25.16-5.342-12.59-4.782-22.9-11.706-29.41-18.941-6.59-7.321-8.9-14.478-6.8-20.013zM1916.93 327.165a415.62 415.62 0 0 1 4.26-4.239c4.88-4.815 11.64-11.35 19.19-18.234 7.55-6.886 15.85-14.105 23.82-20.294 7.99-6.212 15.54-11.301 21.57-14.012 12.28-5.522 24.47-7.915 34.18-7.403 9.84.519 16.54 3.941 18.97 9.345 2.43 5.404.54 12.687-5.6 20.387-6.07 7.609-15.95 15.132-28.23 20.654-6.03 2.711-14.85 4.973-24.8 6.829-9.91 1.848-20.83 3.27-30.99 4.344a690.903 690.903 0 0 1-32.37 2.623zM1964.19 421.061c5.53 12.284 7.92 24.468 7.41 34.186-.52 9.834-3.94 16.535-9.35 18.965-5.4 2.429-12.69.539-20.38-5.601-7.61-6.067-15.14-15.945-20.66-28.229-2.71-6.031-4.97-14.844-6.83-24.796-1.85-9.917-3.27-20.831-4.34-30.991a688.876 688.876 0 0 1-2.25-26.378c-.16-2.313-.28-4.335-.37-5.998 1.18 1.175 2.61 2.61 4.23 4.26a694.84 694.84 0 0 1 18.24 19.193c6.88 7.548 14.1 15.856 20.29 23.822 6.21 7.994 11.3 15.536 14.01 21.567zM1803.67 215.643c-12.28 5.522-24.46 7.915-34.18 7.403-9.84-.519-16.54-3.941-18.97-9.345-2.43-5.404-.54-12.687 5.6-20.387 6.07-7.609 15.95-15.132 28.23-20.654 6.03-2.711 14.85-4.973 24.8-6.828 9.92-1.849 20.83-3.271 30.99-4.345a694.35 694.35 0 0 1 32.38-2.623 815.763 815.763 0 0 1-4.26 4.239c-4.89 4.815-11.65 11.35-19.2 18.234-7.54 6.886-15.85 14.105-23.82 20.295-7.99 6.211-15.53 11.3-21.57 14.011zM1940.48 9.936c5.54 2.101 9.35 8.585 10.45 18.371 1.09 9.67-.57 21.976-5.35 34.569-2.35 6.18-6.98 14.01-12.71 22.36-5.7 8.319-12.41 17.041-18.84 24.985a683.875 683.875 0 0 1-21.04 24.748c0-1.665 0-3.691.02-6.008.04-6.856.21-16.262.68-26.463.46-10.205 1.23-21.184 2.49-31.194 1.26-10.044 2.99-18.976 5.34-25.159 4.78-12.588 11.71-22.896 18.94-29.405 7.32-6.587 14.48-8.907 20.02-6.804zM2029.02 206.901c-2.11 5.539-8.59 9.352-18.38 10.455-9.67 1.089-21.98-.576-34.56-5.356-6.19-2.349-14.02-6.981-22.37-12.706-8.32-5.704-17.04-12.416-24.98-18.841a679.453 679.453 0 0 1-20.24-17.059c-1.75-1.526-3.26-2.869-4.51-3.977a691.47 691.47 0 0 1 32.48.694c10.2.468 21.18 1.238 31.19 2.494 10.04 1.26 18.98 2.994 25.16 5.341 12.59 4.783 22.9 11.707 29.41 18.942 6.58 7.321 8.9 14.477 6.8 20.013zM1695.1 172.407c-5.54-2.104-9.36-8.59-10.46-18.376-1.09-9.671.58-21.975 5.36-34.564 2.35-6.183 6.98-14.014 12.7-22.363 5.71-8.32 12.42-17.042 18.84-24.985a714.42 714.42 0 0 1 17.06-20.242c1.53-1.744 2.87-3.26 3.98-4.504 0 1.666 0 3.692-.01 6.01-.05 6.857-.22 16.263-.68 26.465-.47 10.206-1.24 21.185-2.5 31.194-1.26 10.044-2.99 18.975-5.34 25.156-4.78 12.592-11.71 22.9-18.94 29.409-7.32 6.587-14.48 8.904-20.01 6.8zM1740.17 15.997a694.163 694.163 0 0 1-22.48-23.454c-6.88-7.547-14.1-15.855-20.29-23.82-6.21-7.995-11.3-15.536-14.01-21.568-5.52-12.284-7.92-24.467-7.41-34.185.52-9.835 3.95-16.536 9.35-18.965 5.4-2.43 12.69-.54 20.39 5.6 7.6 6.067 15.13 15.945 20.65 28.229 2.71 6.031 4.97 14.844 6.83 24.796 1.85 9.917 3.27 20.831 4.34 30.991A669.092 669.092 0 0 1 1739.79 10c.16 2.313.28 4.335.38 5.998zM1834.06-31.272c12.29-5.521 24.47-7.915 34.19-7.402 9.83.52 16.53 3.94 18.96 9.345 2.43 5.404.54 12.687-5.6 20.387-6.07 7.608-15.94 15.132-28.23 20.654-6.03 2.71-14.84 4.973-24.79 6.828-9.92 1.85-20.83 3.27-30.99 4.345a693.314 693.314 0 0 1-32.38 2.623 695.433 695.433 0 0 1 23.45-22.473c7.55-6.886 15.86-14.105 23.82-20.295 8-6.211 15.54-11.3 21.57-14.012z"/></g><g clip-path="url(#m)" fill="#AAED75"><path d="M1718.2 212.859c0 12.11-5.05 21.928-11.29 21.928-6.23 0-11.28-9.818-11.28-21.928 0-12.111 11.28-40.428 11.28-40.428s11.29 28.317 11.29 40.428zM1682.12 127.465c-8.57-8.565-19.08-11.935-23.49-7.528-4.4 4.407-1.03 14.921 7.53 23.483 8.57 8.565 36.56 20.608 36.56 20.608s-12.04-28.001-20.6-36.563zM1731.71 127.465c8.57-8.565 19.08-11.935 23.49-7.528 4.4 4.407 1.03 14.921-7.53 23.483-8.57 8.565-36.57 20.608-36.57 20.608s12.05-28.001 20.61-36.563zM1673.36 225.884c8.56 8.565 11.93 19.078 7.52 23.482-4.4 4.407-14.92 1.035-23.48-7.527-8.57-8.565-20.61-36.564-20.61-36.564s28 12.047 36.57 20.609zM1587.46 191.013c-12.11 0-21.93 5.05-21.93 11.283 0 6.232 9.82 11.282 21.93 11.282s40.43-11.282 40.43-11.282-28.32-11.283-40.43-11.283zM1622.53 155.945c0-12.111 5.05-21.928 11.28-21.928 6.23 0 11.28 9.817 11.28 21.928 0 12.11-11.28 40.428-11.28 40.428s-11.28-28.318-11.28-40.428zM1650.86 266.805c12.11 0 21.93 5.05 21.93 11.283 0 6.232-9.82 11.282-21.93 11.282s-40.43-11.282-40.43-11.282 28.32-11.283 40.43-11.283zM1565.47 302.882c-8.57 8.565-11.94 19.078-7.53 23.482 4.4 4.405 14.92 1.035 23.48-7.527 8.57-8.565 20.61-36.564 20.61-36.564s-28 12.047-36.56 20.609zM1565.47 253.288c-8.57-8.565-11.94-19.079-7.53-23.483 4.4-4.407 14.92-1.035 23.48 7.527 8.57 8.565 20.61 36.564 20.61 36.564s-28-12.046-36.56-20.608zM1663.88 311.643c8.57-8.565 19.08-11.935 23.49-7.528 4.4 4.407 1.03 14.921-7.53 23.483-8.57 8.565-36.56 20.608-36.56 20.608s12.04-28.001 20.6-36.563zM1629.01 397.54c0 12.111 5.05 21.928 11.29 21.928 6.23 0 11.28-9.817 11.28-21.928 0-12.11-11.28-40.428-11.28-40.428s-11.29 28.318-11.29 40.428zM1593.94 362.473c-12.11 0-21.92-5.05-21.92-11.283s9.81-11.283 21.92-11.283c12.12 0 40.43 11.283 40.43 11.283s-28.31 11.283-40.43 11.283zM1704.8 334.141c0-12.111 5.05-21.928 11.28-21.928 6.24 0 11.29 9.817 11.29 21.928 0 12.11-11.29 40.428-11.29 40.428s-11.28-28.318-11.28-40.428zM1740.88 419.535c8.57 8.565 19.08 11.935 23.48 7.528 4.41-4.407 1.04-14.921-7.52-23.483-8.57-8.565-36.57-20.608-36.57-20.608s12.05 28.001 20.61 36.563zM1691.29 419.535c-8.57 8.565-19.08 11.935-23.49 7.528-4.4-4.407-1.03-14.921 7.53-23.483 8.57-8.565 36.57-20.608 36.57-20.608s-12.05 28.001-20.61 36.563zM1749.64 321.113c-8.56-8.565-11.93-19.079-7.53-23.483 4.41-4.407 14.93-1.034 23.49 7.528 8.56 8.564 20.61 36.563 20.61 36.563s-28.01-12.046-36.57-20.608zM1835.54 355.985c12.11 0 21.93-5.05 21.93-11.283s-9.82-11.283-21.93-11.283-40.43 11.283-40.43 11.283 28.32 11.283 40.43 11.283zM1800.47 391.055c0 12.11-5.05 21.928-11.28 21.928-6.23 0-11.28-9.818-11.28-21.928 0-12.111 11.28-40.428 11.28-40.428s11.28 28.317 11.28 40.428zM1772.14 280.195c-12.11 0-21.93-5.05-21.93-11.282 0-6.233 9.82-11.283 21.93-11.283s40.43 11.283 40.43 11.283-28.32 11.282-40.43 11.282zM1857.53 244.116c8.57-8.565 11.94-19.079 7.53-23.483-4.4-4.407-14.92-1.035-23.48 7.528-8.57 8.564-20.61 36.563-20.61 36.563s28-12.046 36.56-20.608zM1857.53 293.713c8.57 8.565 11.94 19.078 7.53 23.483-4.4 4.406-14.92 1.034-23.48-7.528-8.57-8.565-20.61-36.564-20.61-36.564s28 12.047 36.56 20.609zM1759.11 235.355c-8.56 8.564-19.08 11.934-23.48 7.527-4.41-4.407-1.03-14.921 7.53-23.483 8.56-8.565 36.56-20.608 36.56-20.608s-12.05 28.002-20.61 36.564zM1793.98 149.46c0-12.11-5.05-21.928-11.28-21.928-6.23 0-11.28 9.818-11.28 21.928 0 12.111 11.28 40.428 11.28 40.428s11.28-28.317 11.28-40.428zM1829.06 184.528c12.11 0 21.92 5.05 21.92 11.283s-9.81 11.283-21.92 11.283c-12.12 0-40.43-11.283-40.43-11.283s28.31-11.283 40.43-11.283z"/></g></g><defs><clipPath id="c"><path fill="#fff" transform="rotate(-23.946 254.907 -1866.818)" d="M0 0h365v365H0z"/></clipPath><clipPath id="m"><path fill="#fff" transform="translate(1556 118)" d="M0 0h311v311H0z"/></clipPath><clipPath id="k"><path fill="#fff" transform="rotate(-24.204 797.29 -2773.447)" d="M0 0h704.623v704.623H0z"/></clipPath><clipPath id="i"><path fill="#fff" transform="rotate(-31.058 885.849 -2139.938)" d="M0 0h644v644H0z"/></clipPath><clipPath id="g"><path fill="#fff" transform="rotate(5.812 651.09 14475.792)" d="M0 0h540.188v540.188H0z"/></clipPath><clipPath id="a"><path fill="#fff" d="M0 0h1920v548H0z"/></clipPath><clipPath id="e"><path fill="#fff" transform="rotate(1.42 -1228.164 59799.802)" d="M0 0h473.413v473.413H0z"/></clipPath><clipPath id="d"><path fill="#fff" transform="rotate(1.42 -3442.341 61959.912)" d="M0 0h365v365H0z"/></clipPath><filter id="h" x="1410.47" y="4.477" width="600.111" height="600.11" filterUnits="userSpaceOnUse" color-interpolation-filters="sRGB"><feFlood flood-opacity="0" result="BackgroundImageFix"/><feBlend in="SourceGraphic" in2="BackgroundImageFix" result="shape"/><feGaussianBlur stdDeviation="2" result="effect1_foregroundBlur_799_718"/></filter><filter id="l" x="1188.18" y="-224.823" width="969.568" height="969.568" filterUnits="userSpaceOnUse" color-interpolation-filters="sRGB"><feFlood flood-opacity="0" result="BackgroundImageFix"/><feBlend in="SourceGraphic" in2="BackgroundImageFix" result="shape"/><feGaussianBlur stdDeviation="9.5" result="effect1_foregroundBlur_799_718"/></filter><filter id="j" x="1222" y="-191" width="901.923" height="901.924" filterUnits="userSpaceOnUse" color-interpolation-filters="sRGB"><feFlood flood-opacity="0" result="BackgroundImageFix"/><feBlend in="SourceGraphic" in2="BackgroundImageFix" result="shape"/><feGaussianBlur stdDeviation="4.5" result="effect1_foregroundBlur_799_718"/></filter><filter id="f" x="1467.8" y="46.8" width="489" height="489" filterUnits="userSpaceOnUse" color-interpolation-filters="sRGB"><feFlood flood-opacity="0" result="BackgroundImageFix"/><feBlend in="SourceGraphic" in2="BackgroundImageFix" result="shape"/><feGaussianBlur stdDeviation="1" result="effect1_foregroundBlur_799_718"/></filter><linearGradient id="b" x1="0" y1="0" x2="289.253" y2="1013.44" gradientUnits="userSpaceOnUse"><stop offset=".177" stop-color="#27834C"/><stop offset="1" stop-color="#89C6A2"/></linearGradient></defs></svg>