<svg width="47" height="40" viewBox="0 0 47 40" fill="none" xmlns="http://www.w3.org/2000/svg"><path d="M8.673 24.462C3.883 24.462 0 22.465 0 19.999c0-2.465 3.883-4.462 8.673-4.462S24.662 20 24.662 20s-11.2 4.463-15.99 4.463zM42.446 10.193c3.387-3.388 4.72-7.546 2.977-9.288-1.743-1.743-5.901-.409-9.288 2.977-3.387 3.388-8.15 14.461-8.15 14.461s11.075-4.764 14.46-8.15zM42.446 29.808c3.387 3.387 4.72 7.545 2.977 9.287-1.743 1.743-5.901.41-9.288-2.977-3.387-3.387-8.15-14.46-8.15-14.46s11.075 4.764 14.46 8.15z" fill="#AAED75"/></svg>