<svg width="51" height="45" fill="none" xmlns="http://www.w3.org/2000/svg"><path fill-rule="evenodd" clip-rule="evenodd" d="M.5 5.833a5 5 0 0 1 5-5h40a5 5 0 0 1 5 5V12.5c0 1.28-.48 2.45-1.273 3.333a4.973 4.973 0 0 1 1.273 3.334v6.666c0 1.28-.48 2.45-1.273 3.334A4.972 4.972 0 0 1 50.5 32.5v6.667a5 5 0 0 1-5 5h-40a5 5 0 0 1-5-5V32.5c0-1.28.48-2.45 1.273-3.333A4.98 4.98 0 0 1 .5 25.833v-6.666c0-1.28.48-2.45 1.273-3.334A4.98 4.98 0 0 1 .5 12.5V5.833zm6.667 5h10V7.5h-10v3.333zm10 13.334h-10v-3.334h10v3.334zm-10 13.333h10v-3.333h-10V37.5z" fill="#24884D"/></svg>