<svg width="688" height="573" fill="none" xmlns="http://www.w3.org/2000/svg"><path d="M126.818 244.339c0 4.558-.955 8.585-2.403 11.399-1.501 2.919-3.219 4.016-4.558 4.016-1.34 0-3.057-1.097-4.559-4.016-1.448-2.814-2.402-6.841-2.402-11.399 0-2.158.512-5.178 1.344-8.603.823-3.391 1.926-7.05 3.037-10.434.91-2.774 1.821-5.35 2.58-7.424a240.4 240.4 0 0 1 2.58 7.424c1.111 3.384 2.214 7.043 3.037 10.434.832 3.425 1.344 6.445 1.344 8.603z" stroke="#8AC6A2" stroke-width="4"/><path d="M82.927 171.953c.946-.947 2.936-1.386 6.06-.384 3.015.966 6.538 3.139 9.762 6.362 1.525 1.526 3.298 4.023 5.132 7.033 1.816 2.98 3.623 6.346 5.231 9.526a238.191 238.191 0 0 1 3.424 7.073 239.456 239.456 0 0 1-7.072-3.424c-3.179-1.608-6.546-3.415-9.525-5.231-3.01-1.834-5.508-3.607-7.034-5.133-3.222-3.222-5.395-6.745-6.361-9.759-1.002-3.125-.564-5.116.383-6.063z" stroke="#AAED75" stroke-width="4"/><path d="M156.789 171.953c.947.947 1.385 2.938.383 6.063-.966 3.014-3.139 6.537-6.361 9.759-1.526 1.526-4.024 3.299-7.034 5.133-2.98 1.816-6.346 3.623-9.525 5.231a239.456 239.456 0 0 1-7.072 3.424c.93-2.003 2.107-4.468 3.424-7.073 1.608-3.18 3.415-6.546 5.231-9.526 1.834-3.01 3.607-5.507 5.132-7.033 3.224-3.223 6.747-5.396 9.761-6.362 3.125-1.002 5.115-.563 6.061.384zM97.77 271.918v.001c-.948.947-2.938 1.385-6.064.383-3.014-.966-6.536-3.139-9.759-6.362-1.526-1.526-3.299-4.023-5.133-7.033-1.816-2.98-3.623-6.347-5.23-9.525a238.123 238.123 0 0 1-3.425-7.073c2.003.93 4.468 2.107 7.074 3.425 3.179 1.608 6.545 3.415 9.525 5.23 3.01 1.835 5.507 3.608 7.033 5.133 3.223 3.223 5.396 6.747 6.362 9.761 1.002 3.125.563 5.115-.383 6.06z" stroke="#27834C" stroke-width="4"/><path d="M51.447 235.948c-2.074.759-4.65 1.67-7.423 2.58-3.385 1.112-7.044 2.214-10.435 3.037-3.425.832-6.445 1.344-8.603 1.344-4.558 0-8.585-.954-11.4-2.402-2.918-1.502-4.015-3.219-4.015-4.559 0-1.339 1.098-3.057 4.016-4.558 2.814-1.448 6.841-2.403 11.4-2.403 2.157 0 5.177.513 8.602 1.344 3.391.823 7.05 1.926 10.435 3.037a240.1 240.1 0 0 1 7.423 2.58z" stroke="#AAED75" stroke-width="4"/><path d="M54.837 199.136c0-4.558.955-8.585 2.403-11.399 1.501-2.919 3.219-4.016 4.558-4.016 1.34 0 3.057 1.097 4.559 4.016 1.448 2.814 2.402 6.841 2.402 11.399 0 2.158-.512 5.178-1.343 8.603-.823 3.391-1.926 7.05-3.037 10.435a238.735 238.735 0 0 1-2.58 7.423 239.02 239.02 0 0 1-2.58-7.423c-1.112-3.385-2.215-7.044-3.038-10.435-.831-3.425-1.344-6.445-1.344-8.603zm20.501 90.046c4.559 0 8.586.954 11.4 2.402 2.918 1.502 4.016 3.219 4.016 4.559 0 1.339-1.098 3.057-4.016 4.558-2.814 1.448-6.841 2.403-11.4 2.403-2.157 0-5.177-.513-8.602-1.344-3.391-.823-7.05-1.926-10.435-3.037a240.1 240.1 0 0 1-7.423-2.58c2.074-.759 4.65-1.67 7.423-2.581 3.385-1.111 7.044-2.214 10.435-3.037 3.425-.831 6.445-1.343 8.602-1.343z" stroke="#8AC6A2" stroke-width="4"/><path d="M25.49 306.886a236.53 236.53 0 0 1 7.073-3.424 238.202 238.202 0 0 1-3.424 7.072c-1.608 3.179-3.415 6.545-5.23 9.525-1.835 3.01-3.608 5.508-5.134 7.034-3.222 3.222-6.745 5.394-9.759 6.36-3.125 1.002-5.116.564-6.063-.382-.947-.946-1.385-2.936-.384-6.061.966-3.014 3.14-6.537 6.363-9.761 1.525-1.525 4.022-3.298 7.032-5.132 2.98-1.816 6.347-3.623 9.526-5.231z" stroke="#AAED75" stroke-width="4"/><path d="M2.953 259.211v-.001c.947-.946 2.938-1.385 6.063-.383 3.014.967 6.537 3.139 9.76 6.362 1.525 1.526 3.298 4.023 5.133 7.033 1.815 2.98 3.622 6.347 5.23 9.526a238.202 238.202 0 0 1 3.424 7.072 239.015 239.015 0 0 1-7.073-3.424c-3.18-1.608-6.546-3.415-9.526-5.231-3.01-1.834-5.507-3.607-7.032-5.133-3.224-3.223-5.397-6.746-6.363-9.76-1.001-3.126-.563-5.115.384-6.061z" stroke="#27834C" stroke-width="4"/><path d="M102.919 318.228c.947.947 1.385 2.938.383 6.063-.966 3.014-3.139 6.537-6.361 9.759-1.526 1.526-4.024 3.299-7.034 5.134-2.98 1.816-6.346 3.623-9.525 5.23a236.465 236.465 0 0 1-7.073 3.424 238.3 238.3 0 0 1 3.425-7.073c1.608-3.179 3.415-6.546 5.23-9.525 1.835-3.011 3.608-5.508 5.133-7.033 3.224-3.224 6.747-5.396 9.76-6.362 3.126-1.002 5.116-.563 6.062.383z" stroke="#AAED75" stroke-width="4"/><path d="M64.368 371.976c.91-2.774 1.822-5.349 2.58-7.423.759 2.074 1.67 4.649 2.58 7.423 1.112 3.385 2.215 7.044 3.038 10.435.831 3.425 1.343 6.445 1.343 8.603 0 4.558-.954 8.585-2.402 11.399-1.502 2.918-3.22 4.016-4.559 4.016-1.34 0-3.057-1.098-4.558-4.016-1.448-2.814-2.403-6.841-2.403-11.399 0-2.158.513-5.178 1.344-8.603.823-3.391 1.926-7.05 3.037-10.435z" stroke="#27834C" stroke-width="4"/><path d="M30.136 361.162c-4.558 0-8.585-.955-11.4-2.402-2.918-1.502-4.015-3.219-4.015-4.559 0-1.339 1.098-3.057 4.016-4.558 2.814-1.448 6.841-2.403 11.4-2.403 2.157 0 5.177.512 8.602 1.344 3.391.823 7.05 1.926 10.435 3.037 2.774.91 5.35 1.822 7.423 2.58-2.074.759-4.65 1.67-7.423 2.58-3.385 1.111-7.044 2.214-10.435 3.037-3.425.832-6.445 1.344-8.603 1.344z" stroke="#8AC6A2" stroke-width="4"/><path d="M120.18 340.662c0-4.558.955-8.586 2.403-11.4 1.501-2.918 3.218-4.016 4.558-4.016 1.34 0 3.057 1.098 4.558 4.016 1.448 2.814 2.403 6.842 2.403 11.4 0 2.157-.512 5.177-1.344 8.603-.823 3.391-1.926 7.049-3.037 10.434a237.627 237.627 0 0 1-2.58 7.423 237.627 237.627 0 0 1-2.58-7.423c-1.111-3.385-2.214-7.043-3.037-10.434-.832-3.426-1.344-6.446-1.344-8.603z" stroke="#27834C" stroke-width="4"/><path d="M134.462 383.437c2.002.93 4.467 2.106 7.072 3.424 3.179 1.608 6.545 3.415 9.525 5.23 3.01 1.835 5.508 3.608 7.034 5.134 3.222 3.222 5.394 6.745 6.36 9.759 1.002 3.125.564 5.116-.382 6.063-.946.947-2.936 1.385-6.061.384-3.014-.966-6.537-3.139-9.761-6.363-1.525-1.525-3.298-4.022-5.132-7.032-1.816-2.98-3.623-6.347-5.231-9.526a235.724 235.724 0 0 1-3.424-7.073z" stroke="#8AC6A2" stroke-width="4"/><path d="M90.211 413.047c-.947-.947-1.385-2.938-.383-6.063.966-3.014 3.139-6.537 6.361-9.759 1.526-1.526 4.024-3.299 7.034-5.134 2.98-1.815 6.346-3.622 9.525-5.23a236.962 236.962 0 0 1 7.072-3.424 235.724 235.724 0 0 1-3.424 7.073c-1.608 3.179-3.415 6.546-5.231 9.526-1.834 3.01-3.607 5.507-5.132 7.032-3.224 3.224-6.747 5.397-9.76 6.363-3.126 1.001-5.116.563-6.062-.384zm59.017-99.968h.001c.947-.947 2.937-1.385 6.062-.383 3.014.966 6.537 3.139 9.76 6.361 1.526 1.526 3.299 4.024 5.133 7.034 1.816 2.979 3.623 6.346 5.231 9.525a236.712 236.712 0 0 1 3.423 7.072 239.4 239.4 0 0 1-7.073-3.424c-3.179-1.608-6.546-3.415-9.525-5.231-3.01-1.834-5.507-3.607-7.033-5.133-3.223-3.223-5.396-6.746-6.362-9.76-1.002-3.125-.563-5.115.383-6.061z" stroke="#AAED75" stroke-width="4"/><path d="M195.553 349.05c2.074-.759 4.65-1.67 7.423-2.58 3.385-1.111 7.044-2.214 10.435-3.037 3.425-.832 6.445-1.344 8.603-1.344 4.558 0 8.585.954 11.399 2.402 2.919 1.502 4.016 3.219 4.016 4.559 0 1.339-1.097 3.057-4.016 4.558-2.814 1.448-6.841 2.403-11.399 2.403-2.158 0-5.178-.512-8.603-1.344-3.391-.823-7.05-1.926-10.435-3.037a241.189 241.189 0 0 1-7.423-2.58z" stroke="#8AC6A2" stroke-width="4"/><path d="M192.163 385.864c0 4.558-.955 8.586-2.403 11.4-1.501 2.918-3.219 4.016-4.558 4.016-1.34 0-3.057-1.098-4.559-4.016-1.448-2.814-2.402-6.842-2.402-11.4 0-2.157.512-5.177 1.343-8.603.824-3.391 1.926-7.049 3.037-10.434a236.51 236.51 0 0 1 2.581-7.423 239.333 239.333 0 0 1 2.58 7.423c1.111 3.385 2.214 7.043 3.037 10.434.831 3.426 1.344 6.446 1.344 8.603z" stroke="#27834C" stroke-width="4"/><path d="M171.661 295.817c-4.558 0-8.585-.954-11.399-2.402-2.918-1.502-4.016-3.219-4.016-4.559 0-1.339 1.098-3.057 4.016-4.558 2.814-1.448 6.841-2.402 11.399-2.402 2.158 0 5.178.512 8.603 1.343 3.391.823 7.05 1.926 10.435 3.037 2.774.911 5.349 1.822 7.423 2.58-2.074.759-4.649 1.67-7.423 2.581-3.385 1.111-7.044 2.214-10.435 3.037-3.425.831-6.445 1.343-8.603 1.343z" stroke="#8AC6A2" stroke-width="4"/><path d="M244.047 251.926v.001c.947.946 1.385 2.935.384 6.061-.966 3.013-3.139 6.537-6.363 9.76-1.525 1.526-4.022 3.298-7.032 5.133-2.98 1.815-6.347 3.622-9.526 5.23a235.97 235.97 0 0 1-7.073 3.425c.93-2.002 2.106-4.468 3.424-7.072 1.608-3.179 3.415-6.546 5.23-9.526 1.835-3.01 3.608-5.507 5.134-7.033 3.222-3.223 6.745-5.395 9.759-6.362 3.125-1.002 5.116-.564 6.063.383z" stroke="#27834C" stroke-width="4"/><path d="M244.047 325.789c-.947.947-2.938 1.385-6.063.383-3.014-.966-6.537-3.139-9.759-6.361-1.526-1.526-3.299-4.024-5.134-7.034-1.815-2.98-3.622-6.346-5.23-9.525a235.724 235.724 0 0 1-3.424-7.073 235.97 235.97 0 0 1 7.073 3.425c3.179 1.608 6.546 3.415 9.526 5.231 3.01 1.834 5.507 3.607 7.032 5.132 3.224 3.224 5.397 6.747 6.363 9.761 1.001 3.125.563 5.115-.384 6.061zm-99.968-59.02v-.001c-.947-.946-1.385-2.937-.383-6.062.966-3.014 3.139-6.537 6.361-9.759 1.526-1.526 4.024-3.3 7.034-5.134 2.979-1.816 6.346-3.623 9.525-5.23a236.962 236.962 0 0 1 7.072-3.424 239.4 239.4 0 0 1-3.424 7.073c-1.608 3.179-3.415 6.546-5.231 9.525-1.834 3.01-3.607 5.508-5.132 7.033-3.224 3.224-6.747 5.396-9.761 6.362-3.125 1.002-5.115.563-6.061-.383zm35.97-46.323a239.333 239.333 0 0 1-2.58-7.423c-1.111-3.385-2.214-7.043-3.037-10.434-.831-3.426-1.343-6.445-1.343-8.603 0-4.558.954-8.585 2.402-11.4 1.501-2.918 3.219-4.016 4.558-4.016 1.34 0 3.057 1.098 4.559 4.016 1.448 2.815 2.402 6.842 2.402 11.4 0 2.158-.512 5.177-1.343 8.603-.823 3.391-1.926 7.049-3.037 10.434a236.51 236.51 0 0 1-2.581 7.423z" stroke="#AAED75" stroke-width="4"/><path d="M216.864 223.837c4.558 0 8.585.955 11.399 2.402 2.919 1.502 4.016 3.219 4.016 4.559 0 1.339-1.097 3.057-4.016 4.558-2.814 1.448-6.841 2.403-11.399 2.403-2.158 0-5.178-.512-8.603-1.344-3.391-.823-7.05-1.926-10.435-3.037a237.627 237.627 0 0 1-7.423-2.58c2.074-.759 4.649-1.67 7.423-2.58 3.385-1.111 7.044-2.214 10.435-3.037 3.425-.832 6.445-1.344 8.603-1.344zm137.006-61.863c-1.368 2.136-3.002 3.699-4.451 4.541-1.55.899-2.353.716-2.605.554-.252-.161-.756-.814-.587-2.598.158-1.668.894-3.806 2.262-5.943.619-.966 1.753-2.224 3.219-3.625 1.44-1.378 3.103-2.804 4.695-4.101.583-.476 1.155-.933 1.699-1.361-.161.673-.337 1.384-.525 2.113-.513 1.988-1.112 4.096-1.76 5.98-.66 1.918-1.328 3.474-1.947 4.44z" stroke="#8AC6A2" stroke-width="4"/><path d="M355.96 114.188c.292-.064 1.109.041 2.251 1.422 1.068 1.291 2.06 3.324 2.603 5.802.245 1.12.333 2.811.288 4.839-.045 1.992-.213 4.177-.42 6.219-.077.75-.158 1.477-.24 2.164-.362-.59-.739-1.216-1.122-1.865-1.043-1.768-2.11-3.682-2.984-5.472-.889-1.823-1.517-3.396-1.763-4.517-.543-2.477-.493-4.738-.063-6.357.459-1.733 1.158-2.171 1.45-2.235z" stroke="#AAED75" stroke-width="4"/><path d="M391.018 136.638c.064.292-.041 1.11-1.423 2.252-1.291 1.068-3.323 2.059-5.801 2.602-1.12.246-2.812.334-4.839.288-1.993-.044-4.177-.212-6.22-.42-.749-.076-1.475-.157-2.163-.239.59-.362 1.217-.74 1.866-1.123 1.768-1.043 3.682-2.109 5.472-2.983 1.823-.89 3.396-1.518 4.516-1.763 2.479-.544 4.739-.493 6.359-.064 1.732.46 2.169 1.158 2.233 1.45zm-59.423 29.351h-.001c-.292.064-1.11-.042-2.252-1.423-1.068-1.291-2.059-3.324-2.602-5.801-.246-1.121-.333-2.812-.288-4.84.044-1.992.212-4.177.42-6.219.076-.749.157-1.476.239-2.164.362.591.74 1.217 1.123 1.866 1.043 1.768 2.11 3.682 2.983 5.473.89 1.823 1.518 3.395 1.764 4.516.543 2.478.493 4.739.063 6.358-.46 1.733-1.158 2.17-1.449 2.234z" stroke="#27834C" stroke-width="4"/><path d="M318.297 133.419c-.673-.162-1.384-.338-2.113-.526-1.988-.512-4.096-1.112-5.98-1.76-1.918-.66-3.474-1.328-4.44-1.947-2.136-1.368-3.699-3.002-4.541-4.45-.899-1.55-.716-2.354-.554-2.606.161-.252.814-.755 2.598-.586 1.668.158 3.806.894 5.943 2.262.966.618 2.224 1.752 3.625 3.218 1.378 1.44 2.804 3.104 4.101 4.695.476.584.933 1.155 1.361 1.7z" stroke="#AAED75" stroke-width="4"/><path d="M334.276 118.309c1.368-2.136 3.002-3.699 4.451-4.54 1.55-.9 2.354-.716 2.606-.555.252.162.755.815.586 2.599-.158 1.668-.894 3.806-2.262 5.942-.618.966-1.753 2.224-3.218 3.626-1.44 1.377-3.104 2.803-4.695 4.1-.584.476-1.156.933-1.7 1.362.162-.674.337-1.384.526-2.114.512-1.988 1.111-4.095 1.76-5.979.66-1.918 1.328-3.475 1.946-4.441zm-19.303 50.625c2.137 1.368 3.7 3.002 4.541 4.451.9 1.55.716 2.353.554 2.605-.161.253-.814.756-2.598.587-1.668-.158-3.806-.894-5.942-2.262-.966-.619-2.224-1.753-3.626-3.219-1.377-1.44-2.803-3.103-4.101-4.695-.476-.583-.932-1.155-1.361-1.699.674.161 1.384.337 2.113.525 1.988.513 4.096 1.112 5.98 1.761 1.918.659 3.474 1.327 4.44 1.946z" stroke="#8AC6A2" stroke-width="4"/><path d="M285.471 162.122c.749.076 1.476.157 2.164.239-.59.362-1.217.739-1.865 1.122-1.768 1.043-3.682 2.11-5.473 2.984-1.823.889-3.396 1.517-4.516 1.763-2.478.543-4.738.493-6.358.063-1.732-.46-2.171-1.158-2.235-1.45-.064-.292.041-1.109 1.423-2.251 1.291-1.068 3.323-2.059 5.801-2.603 1.121-.245 2.812-.333 4.84-.288 1.992.045 4.176.213 6.219.421z" stroke="#AAED75" stroke-width="4"/><path d="M289.637 131.786h.001c.292-.065 1.11.041 2.252 1.423 1.068 1.291 2.059 3.323 2.602 5.8.246 1.121.333 2.813.288 4.84-.044 1.992-.212 4.177-.42 6.219-.076.75-.157 1.476-.239 2.164-.362-.591-.74-1.217-1.123-1.866-1.043-1.768-2.11-3.682-2.983-5.473-.89-1.822-1.518-3.395-1.764-4.515-.543-2.479-.493-4.739-.063-6.359.46-1.732 1.158-2.17 1.449-2.233z" stroke="#27834C" stroke-width="4"/><path d="M318.99 191.208c.064.293-.042 1.11-1.423 2.252-1.291 1.068-3.324 2.059-5.801 2.603-1.121.245-2.812.333-4.84.288-1.992-.045-4.177-.213-6.219-.421-.749-.076-1.476-.157-2.164-.239.591-.362 1.217-.74 1.866-1.122 1.768-1.044 3.682-2.11 5.473-2.984 1.823-.889 3.395-1.518 4.516-1.763 2.478-.543 4.739-.493 6.358-.063 1.733.459 2.17 1.158 2.234 1.449z" stroke="#AAED75" stroke-width="4"/><path d="M284.719 205.867c.583-.476 1.155-.932 1.699-1.361-.161.674-.337 1.384-.525 2.113-.513 1.988-1.112 4.096-1.761 5.98-.66 1.918-1.327 3.474-1.946 4.44-1.368 2.137-3.002 3.7-4.451 4.541-1.55.9-2.353.716-2.605.555-.253-.162-.756-.815-.587-2.599.158-1.668.894-3.806 2.262-5.942.619-.966 1.753-2.224 3.219-3.626 1.44-1.377 3.103-2.803 4.695-4.101z" stroke="#27834C" stroke-width="4"/><path d="M271.309 188.527c-2.136-1.368-3.699-3.002-4.54-4.451-.9-1.55-.716-2.353-.555-2.605.162-.252.815-.755 2.599-.587 1.668.158 3.806.894 5.942 2.262.966.619 2.224 1.753 3.626 3.219 1.377 1.44 2.803 3.104 4.1 4.695.476.584.933 1.155 1.362 1.699-.674-.161-1.384-.337-2.114-.525-1.988-.513-4.095-1.112-5.979-1.76-1.918-.66-3.475-1.328-4.441-1.947z" stroke="#8AC6A2" stroke-width="4"/><path d="M321.932 207.83c1.368-2.136 3.002-3.699 4.451-4.541 1.55-.9 2.354-.716 2.606-.554.252.161.755.814.586 2.598-.158 1.668-.894 3.806-2.262 5.943-.618.966-1.752 2.223-3.218 3.625-1.44 1.377-3.104 2.803-4.695 4.101-.584.476-1.155.933-1.7 1.361.162-.673.338-1.384.526-2.113.512-1.988 1.111-4.096 1.76-5.98.66-1.918 1.328-3.474 1.946-4.44z" stroke="#27834C" stroke-width="4"/><path d="M315.36 235.168c.362.591.74 1.217 1.122 1.865 1.044 1.768 2.11 3.682 2.984 5.473.889 1.823 1.518 3.396 1.763 4.517.544 2.477.493 4.737.063 6.357-.459 1.732-1.158 2.171-1.45 2.235-.291.064-1.108-.041-2.251-1.422-1.067-1.291-2.059-3.324-2.602-5.802-.246-1.12-.333-2.812-.288-4.839.044-1.992.212-4.177.42-6.22.076-.749.157-1.476.239-2.164z" stroke="#8AC6A2" stroke-width="4"/><path d="M284.785 233.166c-.064-.293.042-1.11 1.423-2.252 1.291-1.068 3.324-2.059 5.801-2.603 1.121-.245 2.812-.333 4.84-.288 1.992.045 4.177.213 6.219.421.749.076 1.476.157 2.164.239-.591.362-1.217.74-1.866 1.122-1.768 1.043-3.682 2.11-5.473 2.984-1.823.889-3.395 1.517-4.516 1.763-2.478.543-4.739.493-6.358.063-1.733-.459-2.17-1.158-2.234-1.449zm59.424-29.353c.292-.064 1.11.042 2.252 1.423 1.068 1.291 2.059 3.323 2.602 5.801.246 1.12.333 2.812.288 4.84-.044 1.992-.212 4.176-.42 6.219-.076.749-.157 1.476-.239 2.163-.362-.59-.74-1.217-1.123-1.865-1.043-1.769-2.11-3.683-2.983-5.473-.89-1.823-1.518-3.396-1.763-4.516-.544-2.478-.493-4.739-.064-6.358.46-1.733 1.158-2.17 1.45-2.234z" stroke="#AAED75" stroke-width="4"/><path d="M357.507 236.385c.674.161 1.384.337 2.113.525 1.988.513 4.096 1.112 5.98 1.76 1.918.66 3.474 1.328 4.44 1.947 2.137 1.368 3.7 3.002 4.541 4.451.9 1.549.716 2.353.554 2.605-.161.252-.814.755-2.598.586-1.668-.157-3.806-.893-5.943-2.261-.965-.619-2.223-1.753-3.625-3.219-1.377-1.44-2.803-3.104-4.101-4.695a126.78 126.78 0 0 1-1.361-1.699z" stroke="#8AC6A2" stroke-width="4"/><path d="M341.527 251.494c-1.368 2.137-3.002 3.7-4.451 4.541-1.55.9-2.353.716-2.605.555-.252-.162-.756-.815-.587-2.599.158-1.668.894-3.806 2.262-5.942.619-.966 1.753-2.224 3.219-3.626 1.44-1.377 3.104-2.803 4.695-4.101.584-.476 1.155-.932 1.699-1.361-.161.674-.337 1.384-.525 2.113-.513 1.988-1.112 4.096-1.76 5.98-.66 1.918-1.328 3.475-1.947 4.44z" stroke="#27834C" stroke-width="4"/><path d="M360.83 200.87c-2.136-1.368-3.699-3.002-4.54-4.451-.9-1.55-.716-2.353-.555-2.605.162-.252.815-.756 2.599-.587 1.668.158 3.806.894 5.942 2.262.966.619 2.224 1.753 3.626 3.219 1.377 1.44 2.803 3.103 4.1 4.695.476.583.933 1.155 1.362 1.699-.674-.161-1.384-.337-2.114-.525-1.988-.513-4.095-1.112-5.979-1.76-1.918-.66-3.475-1.328-4.441-1.947z" stroke="#8AC6A2" stroke-width="4"/><path d="M408.616 202.959v.001c.064.291-.041 1.108-1.422 2.251-1.291 1.067-3.324 2.059-5.802 2.602-1.12.246-2.812.333-4.839.288-1.992-.044-4.177-.212-6.219-.42a123.82 123.82 0 0 1-2.165-.239c.591-.362 1.217-.74 1.865-1.122 1.769-1.044 3.682-2.11 5.473-2.984 1.823-.889 3.396-1.518 4.517-1.763 2.477-.544 4.738-.493 6.357-.064 1.733.46 2.171 1.158 2.235 1.45z" stroke="#27834C" stroke-width="4"/><path d="M386.166 238.018c-.292.064-1.11-.042-2.252-1.423-1.068-1.291-2.059-3.323-2.602-5.801-.246-1.121-.334-2.812-.288-4.84.044-1.992.212-4.176.42-6.219.076-.749.157-1.476.239-2.163.362.59.74 1.217 1.123 1.865 1.043 1.769 2.109 3.682 2.983 5.473.889 1.823 1.518 3.396 1.763 4.516.544 2.478.493 4.739.064 6.358-.46 1.733-1.158 2.17-1.45 2.234zm-29.352-59.424-.001-.001c-.064-.292.042-1.109 1.423-2.252 1.292-1.067 3.324-2.059 5.801-2.602 1.121-.246 2.813-.333 4.84-.288 1.992.044 4.177.213 6.219.42.749.076 1.476.158 2.164.239-.591.362-1.217.74-1.866 1.123-1.768 1.043-3.682 2.11-5.473 2.984-1.822.889-3.395 1.517-4.515 1.763-2.479.543-4.74.493-6.359.063-1.732-.46-2.17-1.158-2.233-1.449zm32.57-13.298c.162-.674.338-1.384.526-2.113.512-1.988 1.112-4.096 1.76-5.98.66-1.918 1.328-3.475 1.947-4.441 1.368-2.136 3.002-3.699 4.45-4.54 1.55-.9 2.354-.716 2.606-.555.252.162.755.815.586 2.599-.158 1.668-.894 3.806-2.262 5.942-.618.966-1.752 2.224-3.218 3.626-1.44 1.377-3.104 2.803-4.695 4.1-.584.476-1.155.933-1.7 1.362z" stroke="#AAED75" stroke-width="4"/><path d="M404.494 181.276c2.137 1.368 3.7 3.002 4.541 4.451.9 1.55.716 2.353.554 2.605-.161.252-.814.756-2.598.587-1.668-.158-3.806-.894-5.943-2.262-.966-.619-2.223-1.753-3.625-3.219-1.377-1.44-2.803-3.104-4.101-4.695-.476-.583-.933-1.155-1.361-1.699.674.161 1.384.337 2.113.525 1.988.513 4.096 1.112 5.98 1.76 1.918.66 3.474 1.328 4.44 1.947zm-7.775 205.359c-2.81 1.803-5.65 2.792-7.906 3.008-2.373.226-3.502-.415-3.886-1.015-.385-.6-.498-1.893.698-3.956 1.136-1.961 3.219-4.129 6.03-5.932 1.303-.836 3.36-1.716 5.839-2.571 2.446-.844 5.175-1.622 7.743-2.286 1.54-.399 3.014-.755 4.323-1.057a173.06 173.06 0 0 1-2.763 3.489c-1.674 2.057-3.52 4.213-5.306 6.084-1.811 1.897-3.468 3.4-4.772 4.236z" stroke="#8AC6A2" stroke-width="4"/><path d="M424.679 330.797h.001c.694.151 1.689.986 2.302 3.289.583 2.191.644 5.197-.069 8.46-.33 1.512-1.163 3.589-2.311 5.946-1.132 2.326-2.512 4.806-3.858 7.092a170.313 170.313 0 0 1-2.31 3.804 174.477 174.477 0 0 1-.513-4.42c-.27-2.638-.491-5.468-.55-8.054-.061-2.622.048-4.856.379-6.369.712-3.262 2.02-5.969 3.464-7.717 1.517-1.839 2.769-2.183 3.465-2.031z" stroke="#AAED75" stroke-width="4"/><path d="M454.067 376.608c-.152.696-.987 1.69-3.291 2.303-2.191.583-5.197.644-8.458-.069-1.513-.33-3.59-1.163-5.948-2.311-2.326-1.132-4.806-2.512-7.091-3.858a174.337 174.337 0 0 1-3.804-2.309 170.62 170.62 0 0 1 4.421-.513c2.639-.271 5.468-.491 8.054-.551 2.622-.06 4.856.049 6.369.379 3.263.713 5.97 2.021 7.718 3.465 1.838 1.518 2.182 2.769 2.03 3.464zm-86.006 2.823h-.001c-.696-.152-1.69-.987-2.303-3.291-.583-2.191-.644-5.197.069-8.458.33-1.513 1.163-3.59 2.311-5.948 1.132-2.326 2.512-4.806 3.858-7.091a171.778 171.778 0 0 1 2.309-3.803c.172 1.332.351 2.838.514 4.42.27 2.639.49 5.468.55 8.055.06 2.621-.049 4.856-.379 6.368-.713 3.263-2.021 5.97-3.464 7.718-1.518 1.838-2.77 2.182-3.464 2.03z" stroke="#27834C" stroke-width="4"/><path d="M371.078 335.062a173.808 173.808 0 0 1-3.489-2.763c-2.057-1.674-4.214-3.52-6.085-5.306-1.896-1.811-3.399-3.468-4.235-4.772-1.803-2.81-2.792-5.65-3.008-7.906-.226-2.373.415-3.502 1.015-3.887.6-.384 1.893-.497 3.955.698 1.962 1.137 4.13 3.22 5.933 6.031.836 1.303 1.716 3.36 2.571 5.839.844 2.445 1.622 5.175 2.286 7.743.399 1.54.754 3.014 1.057 4.323z" stroke="#AAED75" stroke-width="4"/><path d="M396.656 324.035c2.811-1.803 5.65-2.792 7.907-3.008 2.372-.226 3.501.415 3.886 1.015.385.6.497 1.893-.698 3.955-1.137 1.962-3.22 4.13-6.03 5.933-1.303.836-3.361 1.716-5.84 2.571-2.445.844-5.175 1.622-7.742 2.286-1.541.399-3.015.754-4.324 1.057a173.808 173.808 0 0 1 2.763-3.489c1.675-2.057 3.52-4.214 5.307-6.084 1.811-1.897 3.468-3.4 4.771-4.236zm-49.021 49.028c1.803 2.811 2.792 5.65 3.008 7.907.226 2.373-.416 3.502-1.015 3.886-.6.385-1.893.498-3.956-.698-1.961-1.136-4.129-3.219-5.932-6.03-.836-1.303-1.716-3.36-2.571-5.839-.844-2.446-1.622-5.175-2.286-7.743-.399-1.54-.755-3.014-1.057-4.323 1.063.82 2.255 1.758 3.489 2.763 2.057 1.674 4.213 3.519 6.084 5.306 1.897 1.811 3.4 3.468 4.236 4.771z" stroke="#8AC6A2" stroke-width="4"/><path d="M316.585 349.038c1.371.807 2.665 1.598 3.804 2.309-1.332.172-2.837.352-4.42.514-2.638.27-5.468.49-8.054.55-2.622.061-4.856-.049-6.369-.379-3.262-.712-5.969-2.021-7.717-3.464-1.838-1.518-2.183-2.77-2.031-3.466.152-.695.986-1.689 3.289-2.302 2.191-.583 5.197-.644 8.46.069 1.512.33 3.589 1.163 5.946 2.311 2.326 1.132 4.806 2.512 7.092 3.858z" stroke="#AAED75" stroke-width="4"/><path d="M337.608 315.716c.696.152 1.69.987 2.303 3.29.583 2.191.644 5.197-.068 8.459-.331 1.513-1.164 3.59-2.312 5.947-1.132 2.326-2.512 4.806-3.858 7.092a174.137 174.137 0 0 1-2.309 3.803 169.603 169.603 0 0 1-.513-4.421c-.271-2.638-.491-5.468-.551-8.054-.06-2.622.049-4.856.379-6.368.713-3.263 2.021-5.971 3.465-7.718 1.518-1.839 2.769-2.182 3.464-2.03z" stroke="#27834C" stroke-width="4"/><path d="M340.432 401.721v.001c-.152.695-.987 1.69-3.291 2.303-2.191.583-5.197.643-8.458-.069-1.513-.331-3.59-1.163-5.948-2.311-2.326-1.133-4.806-2.513-7.091-3.859a168.034 168.034 0 0 1-3.803-2.309c1.332-.171 2.838-.351 4.42-.513 2.639-.27 5.468-.491 8.055-.55 2.621-.061 4.856.048 6.368.378 3.263.713 5.97 2.022 7.718 3.465 1.838 1.518 2.182 2.769 2.03 3.464z" stroke="#AAED75" stroke-width="4"/><path d="M291.739 399.762c1.54-.399 3.014-.755 4.323-1.057a176.698 176.698 0 0 1-2.763 3.489c-1.675 2.057-3.52 4.213-5.307 6.084-1.811 1.897-3.468 3.4-4.771 4.236-2.811 1.803-5.65 2.792-7.907 3.008-2.372.226-3.501-.416-3.886-1.015-.385-.6-.497-1.893.698-3.956 1.137-1.961 3.22-4.129 6.03-5.932 1.303-.836 3.361-1.716 5.84-2.571 2.445-.844 5.175-1.622 7.743-2.286z" stroke="#27834C" stroke-width="4"/><path d="M285.034 373.127c-1.803-2.811-2.792-5.65-3.007-7.907-.227-2.373.415-3.502 1.015-3.886.599-.385 1.893-.498 3.955.698 1.961 1.136 4.13 3.219 5.933 6.03.836 1.303 1.715 3.36 2.571 5.839.843 2.446 1.621 5.175 2.286 7.743.398 1.54.754 3.014 1.057 4.323a166.904 166.904 0 0 1-3.489-2.763c-2.057-1.674-4.214-3.519-6.085-5.306-1.897-1.811-3.4-3.468-4.236-4.771z" stroke="#8AC6A2" stroke-width="4"/><path d="M334.062 422.146c2.81-1.803 5.65-2.792 7.906-3.007 2.373-.227 3.502.415 3.887 1.014.384.6.497 1.894-.698 3.956-1.137 1.961-3.22 4.129-6.031 5.932-1.303.836-3.36 1.716-5.839 2.571-2.445.844-5.175 1.622-7.743 2.287-1.54.398-3.014.754-4.323 1.056a176.698 176.698 0 0 1 2.763-3.489c1.675-2.057 3.52-4.213 5.306-6.084 1.811-1.897 3.469-3.4 4.772-4.236z" stroke="#27834C" stroke-width="4"/><path d="M312.347 449.393c.172 1.332.351 2.838.513 4.42.271 2.638.491 5.468.55 8.054.061 2.622-.048 4.857-.379 6.37-.712 3.261-2.02 5.968-3.464 7.716-1.518 1.838-2.77 2.183-3.465 2.031-.695-.151-1.689-.985-2.303-3.289-.583-2.191-.644-5.197.069-8.46.33-1.512 1.163-3.588 2.311-5.946 1.133-2.326 2.512-4.806 3.858-7.092.808-1.37 1.598-2.664 2.31-3.804z" stroke="#8AC6A2" stroke-width="4"/><path d="M276.715 432.174h.001c.151-.696.987-1.69 3.29-2.303 2.191-.583 5.197-.644 8.459.069 1.513.33 3.589 1.163 5.947 2.311 2.326 1.132 4.806 2.512 7.091 3.858 1.371.807 2.664 1.598 3.804 2.309-1.333.172-2.838.351-4.421.514-2.639.27-5.468.49-8.054.55-2.622.06-4.856-.049-6.369-.379-3.263-.713-5.97-2.021-7.718-3.465-1.838-1.517-2.182-2.769-2.03-3.464zm86.007-2.824h.001c.695.152 1.69.987 2.303 3.29.583 2.191.643 5.197-.069 8.459-.331 1.513-1.163 3.589-2.311 5.947-1.133 2.326-2.513 4.806-3.859 7.091a168.222 168.222 0 0 1-2.309 3.804 174.585 174.585 0 0 1-.513-4.421c-.27-2.638-.491-5.468-.55-8.054-.061-2.622.048-4.856.379-6.369.712-3.262 2.021-5.97 3.464-7.718 1.518-1.838 2.769-2.181 3.464-2.029z" stroke="#AAED75" stroke-width="4"/><path d="M359.706 473.72c1.063.821 2.255 1.758 3.488 2.763 2.057 1.674 4.214 3.519 6.085 5.306 1.897 1.811 3.4 3.468 4.236 4.771 1.803 2.811 2.792 5.65 3.007 7.907.227 2.373-.415 3.502-1.014 3.886-.6.385-1.894.498-3.956-.698-1.961-1.136-4.13-3.219-5.933-6.03-.836-1.303-1.715-3.36-2.571-5.839-.843-2.446-1.621-5.175-2.286-7.743-.398-1.54-.754-3.014-1.056-4.323z" stroke="#8AC6A2" stroke-width="4"/><path d="M334.126 484.747c-2.811 1.803-5.65 2.793-7.906 3.008-2.373.227-3.502-.415-3.887-1.015-.384-.599-.497-1.893.698-3.955 1.137-1.962 3.22-4.13 6.03-5.933 1.304-.836 3.361-1.716 5.84-2.571 2.445-.844 5.175-1.622 7.743-2.286 1.54-.399 3.014-.754 4.323-1.057a173.808 173.808 0 0 1-2.763 3.489c-1.675 2.057-3.52 4.214-5.306 6.085-1.811 1.896-3.469 3.399-4.772 4.235z" stroke="#27834C" stroke-width="4"/><path d="M383.147 435.72c-1.803-2.81-2.792-5.65-3.007-7.906-.227-2.373.415-3.502 1.014-3.887.6-.384 1.894-.497 3.956.698 1.961 1.137 4.129 3.22 5.932 6.031.836 1.303 1.716 3.36 2.571 5.839.844 2.445 1.622 5.175 2.287 7.743.398 1.54.754 3.014 1.056 4.323a176.698 176.698 0 0 1-3.489-2.763c-2.057-1.674-4.213-3.52-6.084-5.306-1.897-1.811-3.4-3.468-4.236-4.772z" stroke="#8AC6A2" stroke-width="4"/><path d="M438.986 463.68h-.001c-.151.695-.985 1.689-3.289 2.302-2.19.584-5.197.644-8.459-.068-1.513-.331-3.589-1.163-5.947-2.311-2.326-1.133-4.806-2.513-7.091-3.859a171.974 171.974 0 0 1-3.804-2.309c1.332-.172 2.837-.351 4.419-.513 2.639-.271 5.468-.491 8.054-.551 2.622-.06 4.857.049 6.37.379 3.262.713 5.969 2.021 7.717 3.464 1.838 1.518 2.183 2.77 2.031 3.466z" stroke="#27834C" stroke-width="4"/><path d="M393.174 493.068v-.001c-.696-.152-1.69-.987-2.303-3.29-.583-2.191-.644-5.197.069-8.459.33-1.513 1.163-3.589 2.311-5.947 1.132-2.326 2.512-4.806 3.858-7.091a174.337 174.337 0 0 1 2.309-3.804c.172 1.333.351 2.838.513 4.421.271 2.638.491 5.468.551 8.054.06 2.622-.049 4.856-.379 6.369-.713 3.263-2.021 5.97-3.465 7.718-1.517 1.838-2.769 2.182-3.464 2.03zm-2.823-86.009c.152-.696.987-1.69 3.291-2.303 2.19-.583 5.196-.644 8.458.068 1.513.331 3.59 1.164 5.948 2.312 2.325 1.132 4.805 2.512 7.091 3.858 1.37.807 2.664 1.598 3.803 2.309-1.332.172-2.838.351-4.421.513-2.638.271-5.468.491-8.054.551-2.621.06-4.856-.049-6.368-.379-3.263-.713-5.97-2.021-7.718-3.465-1.838-1.518-2.182-2.769-2.03-3.464zm44.369 3.018c.82-1.063 1.758-2.255 2.763-3.488 1.674-2.057 3.519-4.214 5.306-6.085 1.811-1.897 3.468-3.4 4.771-4.236 2.811-1.803 5.65-2.792 7.907-3.007 2.373-.227 3.502.415 3.886 1.014.385.6.497 1.894-.698 3.956-1.137 1.961-3.219 4.13-6.03 5.932-1.303.836-3.36 1.716-5.839 2.571-2.446.844-5.175 1.622-7.743 2.287-1.54.398-3.015.754-4.323 1.056z" stroke="#AAED75" stroke-width="4"/><path d="M445.748 435.657c1.803 2.811 2.792 5.65 3.007 7.907.227 2.372-.415 3.501-1.014 3.886-.6.385-1.894.497-3.956-.698-1.961-1.137-4.13-3.219-5.933-6.03-.836-1.303-1.715-3.36-2.571-5.84-.843-2.445-1.621-5.175-2.286-7.742a172.504 172.504 0 0 1-1.056-4.324c1.063.821 2.255 1.759 3.488 2.763 2.057 1.675 4.214 3.52 6.085 5.307 1.897 1.811 3.4 3.468 4.236 4.771z" stroke="#8AC6A2" stroke-width="4"/><path d="M686.588 235.02h-.001c-2.943.645-6.619-1.023-10.238-5.4-3.546-4.287-6.634-10.748-8.306-18.377-.811-3.697-1.052-8.958-.92-14.891.131-5.898.627-12.323 1.234-18.284a405.28 405.28 0 0 1 2.072-16.747c.233.36.478.738.733 1.135a404.368 404.368 0 0 1 8.156 13.211c3.045 5.161 6.184 10.789 8.77 16.091 2.603 5.333 4.585 10.212 5.395 13.908 1.673 7.631 1.571 14.792.144 20.169-1.457 5.49-4.097 8.541-7.039 9.185z" stroke="#27834C" stroke-width="4"/><path d="M656.697 143.133c-.419-.09-.86-.184-1.32-.284a404.373 404.373 0 0 1-15.11-3.574c-5.802-1.496-12.002-3.257-17.58-5.177-5.611-1.931-10.463-3.979-13.65-6.02-6.578-4.213-11.57-9.348-14.363-14.159-2.852-4.911-3.143-8.937-1.518-11.475 1.626-2.538 5.404-3.958 11.058-3.422 5.538.524 12.291 2.909 18.869 7.121 3.187 2.041 7.078 5.591 11.179 9.88 4.077 4.263 8.27 9.157 12.057 13.801a408.346 408.346 0 0 1 9.568 12.228l.81 1.081z" stroke="#AAED75" stroke-width="4"/><path d="M690.347 91.396c4.213-6.578 9.348-11.57 14.159-14.363 4.911-2.852 8.937-3.143 11.475-1.518 2.538 1.626 3.958 5.404 3.423 11.058-.525 5.538-2.91 12.29-7.122 18.869-2.041 3.187-5.591 7.078-9.879 11.179-4.264 4.077-9.158 8.27-13.802 12.057a407.063 407.063 0 0 1-12.228 9.568l-1.081.81c.09-.419.184-.86.284-1.32a408.41 408.41 0 0 1 3.574-15.11c1.496-5.802 3.257-12.002 5.177-17.58 1.931-5.611 3.979-10.463 6.02-13.65zm-50.596 145.257c6.578 4.212 11.57 9.347 14.363 14.158 2.852 4.912 3.143 8.937 1.518 11.476-1.626 2.538-5.404 3.957-11.058 3.422-5.538-.524-12.291-2.909-18.869-7.122-3.187-2.041-7.078-5.59-11.179-9.879-4.077-4.263-8.27-9.158-12.057-13.802a405.191 405.191 0 0 1-10.378-13.308 406.596 406.596 0 0 1 16.43 3.857c5.802 1.497 12.002 3.257 17.58 5.177 5.611 1.931 10.463 3.98 13.65 6.021z" stroke="#8AC6A2" stroke-width="4"/><path d="m568.185 218.254 1.337.191c-.359.233-.738.477-1.134.732a406.652 406.652 0 0 1-13.209 8.157c-5.161 3.044-10.79 6.183-16.091 8.77-5.333 2.602-10.213 4.584-13.91 5.394-7.629 1.673-14.789 1.571-20.166.144-5.49-1.457-8.543-4.097-9.189-7.04-.646-2.942 1.021-6.616 5.397-10.236 4.287-3.546 10.749-6.635 18.38-8.308 3.696-.81 8.957-1.051 14.889-.919 5.897.132 12.323.628 18.284 1.234a405.11 405.11 0 0 1 15.412 1.881z" stroke="#AAED75" stroke-width="4"/><path d="M563.631 128.712h.001c2.943-.645 6.618 1.023 10.238 5.4 3.545 4.287 6.633 10.748 8.306 18.377.811 3.697 1.052 8.958.92 14.891-.132 5.898-.628 12.323-1.234 18.284a407.337 407.337 0 0 1-2.072 16.747c-.233-.36-.478-.738-.733-1.135a405.925 405.925 0 0 1-8.157-13.211c-3.044-5.161-6.183-10.789-8.77-16.091-2.602-5.333-4.584-10.212-5.394-13.908-1.673-7.631-1.571-14.792-.144-20.169 1.457-5.49 4.097-8.541 7.039-9.185z" stroke="#27834C" stroke-width="4"/><path d="M653.022 303.446c.645 2.944-1.023 6.619-5.4 10.239-4.287 3.545-10.748 6.633-18.377 8.306-3.697.81-8.959 1.052-14.891.919-5.898-.131-12.323-.627-18.284-1.233a407.082 407.082 0 0 1-15.411-1.882c-.466-.066-.912-.129-1.336-.191l1.134-.732a408.117 408.117 0 0 1 13.211-8.157c5.162-3.045 10.79-6.183 16.091-8.77 5.334-2.602 10.213-4.584 13.908-5.395 7.632-1.673 14.793-1.57 20.17-.144 5.489 1.457 8.541 4.097 9.185 7.04z" stroke="#AAED75" stroke-width="4"/><path d="m560.052 334.15 1.081-.81c-.09.419-.184.86-.284 1.32a404.842 404.842 0 0 1-3.574 15.11c-1.496 5.802-3.257 12.002-5.177 17.579-1.931 5.612-3.979 10.464-6.02 13.651-4.213 6.578-9.348 11.569-14.159 14.362-4.911 2.852-8.937 3.144-11.475 1.518-2.538-1.625-3.958-5.403-3.422-11.058.524-5.538 2.909-12.29 7.121-18.868 2.041-3.187 5.591-7.078 9.88-11.18 4.263-4.077 9.157-8.27 13.801-12.057a408.105 408.105 0 0 1 12.228-9.567z" stroke="#27834C" stroke-width="4"/><path d="M509.396 299.689c-6.578-4.212-11.569-9.348-14.363-14.158-2.851-4.912-3.143-8.938-1.518-11.476 1.626-2.538 5.404-3.957 11.058-3.422 5.538.524 12.291 2.909 18.869 7.122 3.187 2.041 7.078 5.59 11.179 9.879 4.078 4.263 8.271 9.157 12.057 13.801a406.581 406.581 0 0 1 9.568 12.229l.81 1.08a404.842 404.842 0 0 1-16.43-3.858c-5.802-1.496-12.002-3.257-17.58-5.176-5.611-1.931-10.463-3.98-13.65-6.021z" stroke="#8AC6A2" stroke-width="4"/><path d="M654.649 350.284c4.213-6.578 9.348-11.57 14.159-14.363 4.911-2.852 8.937-3.143 11.475-1.518 2.538 1.625 3.958 5.404 3.423 11.058-.525 5.538-2.91 12.29-7.122 18.869-2.041 3.187-5.591 7.077-9.879 11.179-4.264 4.077-9.158 8.27-13.802 12.057a406.823 406.823 0 0 1-13.309 10.377l.284-1.32a408.419 408.419 0 0 1 3.574-15.109c1.496-5.803 3.257-12.002 5.177-17.58 1.931-5.611 3.98-10.463 6.02-13.65z" stroke="#27834C" stroke-width="4"/><path d="M636.445 420.515a408.807 408.807 0 0 1 8.889 14.343c3.044 5.161 6.183 10.789 8.77 16.091 2.602 5.333 4.584 10.213 5.395 13.91 1.672 7.629 1.57 14.789.143 20.165-1.457 5.49-4.097 8.544-7.04 9.19-2.941.646-6.616-1.021-10.236-5.398-3.545-4.286-6.634-10.748-8.307-18.379-.811-3.696-1.052-8.957-.92-14.89.132-5.897.628-12.322 1.234-18.284a407.422 407.422 0 0 1 2.072-16.748z" stroke="#8AC6A2" stroke-width="4"/><path d="M546.712 426.406v-.001c-.645-2.943 1.023-6.619 5.4-10.238 4.287-3.545 10.748-6.634 18.377-8.306 3.697-.811 8.959-1.052 14.891-.92 5.898.131 12.323.627 18.284 1.234a405.28 405.28 0 0 1 16.747 2.072l-1.134.733a406.543 406.543 0 0 1-13.211 8.156c-5.161 3.045-10.79 6.184-16.091 8.77-5.333 2.603-10.212 4.585-13.908 5.395-7.632 1.673-14.793 1.571-20.17.144-5.489-1.457-8.541-4.097-9.185-7.039zm174.736-89.394h.001c2.943-.646 6.618 1.023 10.238 5.4 3.545 4.286 6.633 10.748 8.306 18.377.811 3.697 1.052 8.958.92 14.891-.132 5.897-.628 12.323-1.234 18.284a406.997 406.997 0 0 1-2.072 16.746l-.733-1.134a405.925 405.925 0 0 1-8.157-13.211c-3.044-5.161-6.183-10.79-8.77-16.091-2.602-5.333-4.584-10.212-5.394-13.908-1.673-7.631-1.571-14.793-.144-20.169 1.457-5.49 4.097-8.541 7.039-9.185z" stroke="#AAED75" stroke-width="4"/><path d="M717.69 480.641c-4.213 6.578-9.348 11.57-14.159 14.363-4.911 2.852-8.937 3.143-11.475 1.518-2.539-1.625-3.958-5.404-3.423-11.058.525-5.538 2.91-12.291 7.122-18.869 2.041-3.187 5.591-7.077 9.879-11.179 4.263-4.077 9.158-8.27 13.802-12.057a406.823 406.823 0 0 1 13.309-10.377l-.284 1.32a408.419 408.419 0 0 1-3.574 15.109c-1.497 5.803-3.257 12.002-5.177 17.58-1.931 5.611-3.98 10.463-6.02 13.65z" stroke="#27834C" stroke-width="4"/></svg>